<svg width="737" height="293" viewBox="0 0 737 293" fill="none" xmlns="http://www.w3.org/2000/svg">
<path d="M35.4944 149.299C35.4944 136.508 37.843 124.801 42.5403 114.178C47.2375 103.555 53.8137 94.4495 62.2688 86.8616C70.7961 79.2014 80.9856 73.2756 92.8372 69.0842C104.761 64.8928 117.949 62.7971 132.403 62.7971C146.783 62.7971 159.936 64.8928 171.86 69.0842C183.783 73.2756 193.973 79.2014 202.428 86.8616C210.955 94.4495 217.568 103.555 222.265 114.178C226.962 124.801 229.311 136.508 229.311 149.299C229.311 162.162 226.962 173.978 222.265 184.745C217.568 195.441 210.955 204.655 202.428 212.387C193.973 220.119 183.783 226.154 171.86 230.49C159.936 234.753 146.783 236.885 132.403 236.885C117.949 236.885 104.761 234.753 92.8372 230.49C80.9856 226.154 70.7961 220.119 62.2688 212.387C53.8137 204.655 47.2375 195.441 42.5403 184.745C37.843 173.978 35.4944 162.162 35.4944 149.299ZM69.8567 149.299C69.8567 158.043 71.4104 165.92 74.5178 172.93C77.6975 179.94 82.0696 185.938 87.634 190.924C93.2708 195.838 99.8831 199.632 107.471 202.306C115.131 204.98 123.442 206.317 132.403 206.317C141.364 206.317 149.638 204.98 157.226 202.306C164.886 199.632 171.498 195.838 177.063 190.924C182.627 185.938 186.999 179.94 190.179 172.93C193.359 165.92 194.948 158.043 194.948 149.299C194.948 140.555 193.359 132.714 190.179 125.777C186.999 118.839 182.627 112.986 177.063 108.216C171.498 103.374 164.886 99.6887 157.226 97.1594C149.638 94.6301 141.364 93.3655 132.403 93.3655C123.442 93.3655 115.131 94.6301 107.471 97.1594C99.8831 99.6887 93.2708 103.374 87.634 108.216C82.0696 112.986 77.6975 118.839 74.5178 125.777C71.4104 132.714 69.8567 140.555 69.8567 149.299Z" fill="#EA580C"/>
<path d="M292.68 205.62C284.467 205.62 277.053 203.807 270.44 200.18C263.933 196.553 258.813 191.487 255.08 184.98C251.347 178.367 249.48 170.633 249.48 161.78C249.48 152.927 251.347 145.247 255.08 138.74C258.813 132.233 263.933 127.167 270.44 123.54C277.053 119.913 284.467 118.1 292.68 118.1C300.04 118.1 306.493 119.7 312.04 122.9C317.693 125.993 322.12 130.74 325.32 137.14C328.627 143.54 330.28 151.753 330.28 161.78C330.28 171.7 328.573 179.913 325.16 186.42C321.853 192.82 317.373 197.62 311.72 200.82C306.067 204.02 299.72 205.62 292.68 205.62ZM294.92 188.5C299.72 188.5 304.04 187.433 307.88 185.3C311.72 183.167 314.76 180.073 317 176.02C319.24 171.967 320.36 167.22 320.36 161.78C320.36 156.233 319.24 151.487 317 147.54C314.76 143.487 311.72 140.393 307.88 138.26C304.04 136.127 299.72 135.06 294.92 135.06C290.12 135.06 285.8 136.127 281.96 138.26C278.227 140.393 275.24 143.487 273 147.54C270.76 151.487 269.64 156.233 269.64 161.78C269.64 167.22 270.76 171.967 273 176.02C275.24 180.073 278.227 183.167 281.96 185.3C285.8 187.433 290.12 188.5 294.92 188.5ZM320.04 235.54V184.66L321.64 161.94L321 139.22V119.06H340.04V235.54H320.04ZM358.208 204.5V119.06H378.208V204.5H358.208ZM368.288 104.98C364.554 104.98 361.461 103.807 359.008 101.46C356.661 99.1133 355.488 96.2867 355.488 92.98C355.488 89.5667 356.661 86.74 359.008 84.5C361.461 82.1533 364.554 80.98 368.288 80.98C372.021 80.98 375.061 82.1 377.408 84.34C379.861 86.4733 381.088 89.1933 381.088 92.5C381.088 96.02 379.914 99.0067 377.568 101.46C375.221 103.807 372.128 104.98 368.288 104.98ZM504.298 118.1C511.124 118.1 517.151 119.433 522.378 122.1C527.711 124.767 531.871 128.873 534.858 134.42C537.844 139.86 539.338 146.9 539.338 155.54V204.5H519.338V158.1C519.338 150.527 517.684 144.873 514.378 141.14C511.071 137.407 506.324 135.54 500.138 135.54C495.764 135.54 491.871 136.5 488.458 138.42C485.151 140.34 482.538 143.167 480.618 146.9C478.804 150.633 477.898 155.38 477.898 161.14V204.5H457.898V158.1C457.898 150.527 456.244 144.873 452.938 141.14C449.631 137.407 444.884 135.54 438.698 135.54C434.324 135.54 430.431 136.5 427.018 138.42C423.711 140.34 421.098 143.167 419.178 146.9C417.364 150.633 416.458 155.38 416.458 161.14V204.5H396.458V119.06H415.498V141.78L412.138 135.06C415.018 129.513 419.178 125.3 424.618 122.42C430.164 119.54 436.458 118.1 443.498 118.1C451.498 118.1 458.431 120.073 464.298 124.02C470.271 127.967 474.218 133.94 476.138 141.94L468.298 139.22C471.071 132.82 475.658 127.7 482.058 123.86C488.458 120.02 495.871 118.1 504.298 118.1ZM562.373 236.66C558.213 236.66 554.053 235.967 549.893 234.58C545.733 233.193 542.266 231.273 539.493 228.82L547.493 214.1C549.519 215.913 551.813 217.353 554.373 218.42C556.933 219.487 559.546 220.02 562.213 220.02C565.839 220.02 568.773 219.113 571.013 217.3C573.253 215.487 575.333 212.447 577.253 208.18L582.213 196.98L583.813 194.58L616.133 119.06H635.333L595.333 211.38C592.666 217.78 589.679 222.847 586.373 226.58C583.173 230.313 579.546 232.927 575.493 234.42C571.546 235.913 567.173 236.66 562.373 236.66ZM579.973 207.54L541.413 119.06H562.213L593.573 192.82L579.973 207.54ZM688.313 118.1C695.139 118.1 701.219 119.433 706.553 122.1C711.993 124.767 716.259 128.873 719.353 134.42C722.446 139.86 723.993 146.9 723.993 155.54V204.5H703.993V158.1C703.993 150.527 702.179 144.873 698.553 141.14C695.033 137.407 690.073 135.54 683.673 135.54C678.979 135.54 674.819 136.5 671.193 138.42C667.566 140.34 664.739 143.22 662.713 147.06C660.793 150.793 659.833 155.54 659.833 161.3V204.5H639.833V119.06H658.873V142.1L655.513 135.06C658.499 129.62 662.819 125.46 668.473 122.58C674.233 119.593 680.846 118.1 688.313 118.1Z" fill="#EA580C"/>
<path d="M37.0115 139.556C94.138 133.912 143.018 113.469 179.552 72.2163L161.696 37.2363C137.779 29.2581 107.82 26.4823 73.6295 31.6212C57.0062 40.8941 27.2668 72.9537 19.949 104.379L37.0115 139.556Z" fill="#338000" stroke="#1A2129" stroke-width="2" stroke-linecap="round" stroke-linejoin="round"/>
<path d="M36.3338 139.975C100.783 133.367 138.811 114.856 179.911 72.995L162 37.5003C122.453 75.5295 76.3031 97.2825 20 104.5L36.3338 139.975Z" fill="#338000" stroke="#1A2129" stroke-width="2" stroke-linecap="round" stroke-linejoin="round"/>
</svg>
