
<svg width="187" height="68" viewBox="0 0 187 68" fill="none" xmlns="http://www.w3.org/2000/svg">
<path d="M46.6591 0.548096H41.0737V33.2159H46.6591V0.548096Z" fill="#183059"/>
<path d="M71.6496 18.841C70.8464 18.0187 69.9523 17.2905 68.9844 16.6703C67.9676 16.0192 66.8928 15.3969 65.7602 14.8036C64.6493 14.3152 63.6722 13.863 62.8291 13.447C62.0678 13.0851 61.341 12.6546 60.6579 12.1609C60.1203 11.7693 59.6679 11.2727 59.328 10.7011C59.0125 10.1227 58.8552 9.47133 58.8721 8.81271C58.8508 8.10433 59.0583 7.40793 59.4637 6.8266C59.8706 6.27199 60.3952 5.81426 60.9998 5.48624C61.6775 5.11786 62.4109 4.86306 63.171 4.73195C63.9636 4.58059 64.7687 4.50428 65.5756 4.50404C68.4887 4.50404 70.8734 5.17331 72.7297 6.51186V1.16129C71.1484 0.387099 68.6479 5.55437e-06 65.2283 5.55437e-06C63.7334 -0.0011599 62.244 0.181087 60.7936 0.54266C59.4224 0.862668 58.1156 1.41315 56.9288 2.17062C55.8275 2.89097 54.9003 3.84749 54.2148 4.97072C53.5084 6.18464 53.155 7.57163 53.1944 8.97551C53.1681 10.0913 53.3751 11.2003 53.8023 12.2314C54.2024 13.156 54.7649 14.0014 55.4633 14.7276C56.2101 15.4998 57.0486 16.1777 57.9602 16.7463C58.9155 17.3541 59.9486 17.9528 61.0595 18.5425C62.0909 19.0128 63.0589 19.465 63.9635 19.8991C64.7859 20.287 65.5755 20.7406 66.3247 21.2558C66.9225 21.6705 67.4394 22.1909 67.85 22.7915C68.2271 23.3957 68.416 24.0984 68.3928 24.8102C68.4326 25.4581 68.3035 26.1053 68.018 26.6884C67.7326 27.2715 67.3006 27.7705 66.7644 28.1366C65.6498 28.8963 63.9527 29.2762 61.6729 29.2762C60.9446 29.2706 60.2181 29.2016 59.5017 29.07C58.715 28.9297 57.9388 28.7357 57.1785 28.4894C56.4296 28.2449 55.7031 27.9363 55.0073 27.5668C54.3527 27.2356 53.7434 26.8216 53.1944 26.335V31.9189C53.7568 32.2537 54.3609 32.5127 54.991 32.6895C55.7703 32.9268 56.5622 33.1207 57.3631 33.2701C58.199 33.4329 58.9915 33.5523 59.8111 33.6391C60.6307 33.726 61.2821 33.764 61.8303 33.764C63.3988 33.7697 64.9636 33.6096 66.4984 33.2864C67.8827 33.0043 69.2059 32.4788 70.4066 31.7344C71.5251 31.0444 72.457 30.0903 73.1206 28.956C73.8246 27.673 74.1696 26.2239 74.1193 24.7613C74.1388 23.6296 73.911 22.5074 73.4517 21.4728C73.003 20.5007 72.3937 19.6109 71.6496 18.841Z" fill="#183059"/>
<path d="M97.0308 18.841C96.2276 18.0187 95.3335 17.2905 94.3656 16.6703C93.3488 16.0192 92.2722 15.3969 91.1359 14.8036C90.0286 14.3152 89.0534 13.863 88.2103 13.447C87.4583 13.0836 86.7407 12.6532 86.0662 12.1609C85.5286 11.7693 85.0762 11.2727 84.7363 10.7011C84.4208 10.1227 84.2635 9.47132 84.2804 8.81271C84.2591 8.10432 84.4666 7.40792 84.872 6.82659C85.2789 6.27198 85.8035 5.81425 86.4082 5.48623C87.0774 5.12063 87.8015 4.86589 88.5522 4.73195C89.3448 4.58059 90.1499 4.50428 90.9568 4.50403C93.8735 4.50403 96.2582 5.1733 98.1109 6.51185V1.16128C96.5477 0.387093 94.0598 0 90.6474 0C89.158 0.000164121 87.6742 0.182401 86.229 0.542654C84.8579 0.862662 83.5511 1.41314 82.3643 2.17062C81.2629 2.89097 80.3358 3.84749 79.6503 4.97071C78.9391 6.18139 78.5801 7.56647 78.6136 8.97008C78.5872 10.0859 78.7943 11.1948 79.2215 12.226C79.6216 13.1506 80.1841 13.996 80.8825 14.7222C81.6293 15.4944 82.4678 16.1723 83.3793 16.7409C84.3347 17.3487 85.3678 17.9474 86.4787 18.5371C87.5101 19.0074 88.478 19.4596 89.3827 19.8937C90.204 20.2803 90.9919 20.734 91.7385 21.2503C92.3395 21.6652 92.8584 22.1877 93.2692 22.7915C93.6462 23.3957 93.8352 24.0983 93.812 24.8102C93.8427 25.4591 93.7043 26.1048 93.4102 26.6842C93.1162 27.2635 92.6767 27.7565 92.1347 28.1149C91.0346 28.9072 89.3429 29.3033 87.0595 29.3033C86.3402 29.2961 85.6229 29.2271 84.9155 29.0971C84.1287 28.9568 83.3525 28.7628 82.5923 28.5165C81.8433 28.272 81.1169 27.9634 80.4211 27.594C79.7751 27.2595 79.1733 26.8456 78.6298 26.3621V31.9189C79.1947 32.2525 79.8005 32.5115 80.4319 32.6895C81.2112 32.9268 82.0031 33.1207 82.804 33.2701C83.6399 33.4329 84.4324 33.5523 85.252 33.6391C86.0716 33.726 86.723 33.764 87.2712 33.764C88.8397 33.7697 90.4045 33.6096 91.9393 33.2864C93.3236 33.0043 94.6468 32.4788 95.8475 31.7344C96.966 31.0444 97.8979 30.0903 98.5615 28.956C99.2655 27.673 99.6105 26.2239 99.5602 24.7613C99.5797 23.6296 99.3518 22.5074 98.8926 21.4728C98.4258 20.4963 97.7962 19.6063 97.0308 18.841Z" fill="#183059"/>
<path d="M139.532 0.580627V1.12328L127.84 13.2028L121.967 0.662026L122 0.580627H115.529L115.567 0.662026L100.336 33.1779H106.731L106.91 32.798L128.198 27.6265L130.815 33.1779H137.214L132.546 23.2202L139.499 6.43587L139.369 33.1779H145.763L145.926 0.580627H139.532ZM134.978 8.23748L129.501 16.7572L128.6 14.8307L134.978 8.23748ZM118.764 7.48862L123.367 17.3161L109.043 28.2451L118.764 7.48862ZM124.095 18.8844L125.224 21.2937L111.724 28.3482L124.095 18.8844ZM112.826 29.6343L125.929 22.7915L127.46 26.0474L112.826 29.6343ZM131.569 21.1635L130.342 18.5533L136.856 8.41656L131.569 21.1635Z" fill="#183059"/>
<path d="M80.1771 53.446H78.9775V46.4295H80.1771V53.446Z" fill="#183059"/>
<path d="M86.0336 53.446H84.8991V50.6242C84.8991 49.6854 84.568 49.2187 83.9058 49.2187C83.7436 49.2161 83.5828 49.2498 83.4354 49.3174C83.2879 49.385 83.1574 49.4848 83.0536 49.6094C82.8209 49.8805 82.6989 50.2292 82.7117 50.5862V53.446H81.5718V48.4373H82.7117V49.2676C82.868 48.9736 83.1031 48.729 83.3908 48.5613C83.6784 48.3935 84.0072 48.3092 84.3401 48.3179C84.5761 48.3047 84.8119 48.3469 85.0287 48.4411C85.2455 48.5353 85.4372 48.679 85.5885 48.8606C85.904 49.3079 86.0555 49.8503 86.0173 50.3963L86.0336 53.446Z" fill="#183059"/>
<path d="M86.9077 53.2886V52.2359C87.3061 52.5513 87.8 52.7216 88.3081 52.7189C88.9975 52.7189 89.3395 52.5181 89.3395 52.1165C89.3414 52.0114 89.309 51.9085 89.2472 51.8235C89.1855 51.737 89.1059 51.6648 89.0138 51.6118C88.9027 51.543 88.7844 51.4865 88.661 51.4436L88.2104 51.2808C88.0253 51.2031 87.8441 51.1161 87.6676 51.0203C87.5153 50.9364 87.3763 50.8303 87.2551 50.7056C87.1477 50.5935 87.0645 50.4605 87.0108 50.3149C86.9504 50.1406 86.9228 49.9566 86.9294 49.7722C86.9244 49.549 86.9828 49.3289 87.0977 49.1373C87.2139 48.9487 87.3717 48.789 87.5591 48.6707C87.7615 48.5422 87.9833 48.4469 88.2159 48.3885C88.462 48.323 88.7157 48.2901 88.9704 48.2908C89.3943 48.2834 89.8158 48.3552 90.2134 48.5024V49.4955C89.8577 49.251 89.4345 49.1239 89.0029 49.1319C88.8714 49.1311 88.7402 49.1457 88.6121 49.1753C88.5086 49.2016 88.4097 49.2437 88.319 49.3001C88.2412 49.349 88.1746 49.4137 88.1236 49.4901C88.08 49.562 88.0574 49.6447 88.0584 49.7288C88.0552 49.8252 88.0777 49.9208 88.1236 50.0056C88.1756 50.0863 88.2464 50.1534 88.3298 50.2009C88.4305 50.265 88.5379 50.3177 88.6501 50.3583L89.0843 50.5103C89.3015 50.6025 89.4914 50.6893 89.6651 50.7816C89.8235 50.8668 89.9711 50.9707 90.1048 51.0909C90.2223 51.2055 90.3163 51.3419 90.3816 51.4925C90.4507 51.6648 90.484 51.8495 90.4793 52.0351C90.484 52.2676 90.4238 52.4969 90.3056 52.6971C90.1855 52.8878 90.0241 53.0491 89.8334 53.1693C89.6246 53.2993 89.3951 53.3929 89.1549 53.446C88.8895 53.5058 88.6182 53.535 88.3461 53.5328C87.8546 53.5572 87.3637 53.4739 86.9077 53.2886Z" fill="#183059"/>
<path d="M93.9805 53.3918C93.705 53.5106 93.4064 53.5662 93.1066 53.5545C92.135 53.5545 91.6465 53.0933 91.6465 52.1599V49.3273H90.8105V48.4373H91.6465V47.276L92.7809 46.9559V48.4373H93.9805V49.3273H92.7809V51.8289C92.76 52.053 92.8175 52.2774 92.9437 52.4638C93.0136 52.5352 93.0987 52.5899 93.1928 52.6237C93.2868 52.6575 93.3872 52.6697 93.4865 52.6592C93.6673 52.6617 93.8435 52.6023 93.9859 52.4909L93.9805 53.3918Z" fill="#183059"/>
<path d="M95.3319 47.3846C95.1556 47.3882 94.9847 47.3241 94.8542 47.2055C94.79 47.1472 94.7389 47.0759 94.7043 46.9964C94.6697 46.9169 94.6523 46.831 94.6534 46.7443C94.6526 46.6568 94.67 46.5701 94.7046 46.4898C94.7392 46.4094 94.7901 46.3371 94.8542 46.2776C94.9838 46.157 95.1549 46.091 95.3319 46.0931C95.5121 46.0909 95.6866 46.1568 95.8204 46.2776C95.8856 46.3363 95.9373 46.4084 95.9719 46.4889C96.0066 46.5695 96.0234 46.6566 96.0212 46.7443C96.0221 46.8294 96.0046 46.9136 95.97 46.9914C95.9353 47.0691 95.8843 47.1384 95.8204 47.1947C95.7558 47.2574 95.6793 47.3065 95.5954 47.3391C95.5115 47.3717 95.4219 47.3872 95.3319 47.3846ZM95.8747 53.446H94.7348V48.4373H95.8747V53.446Z" fill="#183059"/>
<path d="M99.8155 53.3918C99.5403 53.5117 99.2414 53.5674 98.9415 53.5545C97.9699 53.5545 97.4814 53.0933 97.4814 52.1599V49.3273H96.6455V48.4373H97.4814V47.276L98.6213 46.9559V48.4373H99.8155V49.3273H98.6213V51.8289C98.5988 52.0524 98.6544 52.2767 98.7787 52.4638C98.8486 52.5352 98.9337 52.5899 99.0277 52.6237C99.1217 52.6575 99.2222 52.6697 99.3215 52.6592C99.5024 52.6626 99.6789 52.6031 99.8209 52.4909L99.8155 53.3918Z" fill="#183059"/>
<path d="M104.967 53.446H103.827V52.6375C103.687 52.9215 103.467 53.1586 103.194 53.3195C102.921 53.4805 102.607 53.5584 102.291 53.5437C101.107 53.5437 100.516 52.8328 100.516 51.4111V48.4373H101.65V51.3134C101.65 52.2142 101.997 52.6646 102.692 52.6646C102.85 52.6683 103.006 52.6366 103.15 52.5718C103.294 52.507 103.421 52.4108 103.523 52.2902C103.747 52.0176 103.861 51.6712 103.843 51.3188V48.4373H104.983L104.967 53.446Z" fill="#183059"/>
<path d="M108.886 53.3918C108.609 53.511 108.308 53.5667 108.006 53.5545C107.035 53.5545 106.552 53.0933 106.552 52.1599V49.3273H105.71V48.4373H106.552V47.276L107.686 46.9559V48.4373H108.886V49.3273H107.686V51.8289C107.666 52.0522 107.722 52.2757 107.844 52.4638C107.914 52.5349 107.999 52.5893 108.093 52.6231C108.187 52.6569 108.287 52.6693 108.386 52.6592C108.567 52.6608 108.743 52.6016 108.886 52.4909V53.3918Z" fill="#183059"/>
<path d="M113.842 51.2483H110.427C110.421 51.4488 110.456 51.6485 110.53 51.8351C110.604 52.0217 110.715 52.1913 110.856 52.3336C111.169 52.5979 111.571 52.7319 111.98 52.708C112.508 52.7089 113.023 52.5416 113.451 52.2305V53.1421C112.901 53.4526 112.274 53.6012 111.643 53.5708C111.322 53.5887 111.001 53.5373 110.701 53.4203C110.401 53.3033 110.13 53.1233 109.906 52.8925C109.459 52.3564 109.235 51.6683 109.282 50.9715C109.251 50.2706 109.499 49.5859 109.971 49.0668C110.186 48.822 110.45 48.6264 110.747 48.4934C111.044 48.3604 111.367 48.2931 111.692 48.2962C111.99 48.2798 112.288 48.3308 112.563 48.4454C112.838 48.56 113.084 48.7353 113.282 48.9583C113.677 49.4849 113.87 50.1358 113.825 50.7924L113.842 51.2483ZM112.756 50.4451C112.771 50.1042 112.668 49.7685 112.463 49.4955C112.368 49.3815 112.248 49.2913 112.113 49.2319C111.977 49.1725 111.829 49.1457 111.681 49.1536C111.525 49.1501 111.37 49.1803 111.227 49.2421C111.084 49.3039 110.955 49.3959 110.851 49.5118C110.617 49.7716 110.471 50.098 110.433 50.4451H112.756Z" fill="#183059"/>
<path d="M118.103 50.4235C118.273 50.4217 118.441 50.4627 118.591 50.5428C118.737 50.6147 118.857 50.7304 118.933 50.8739C119.01 51.0174 119.049 51.1779 119.047 51.3405C119.046 51.7218 118.945 52.0961 118.754 52.4259C118.569 52.7649 118.3 53.0508 117.972 53.2561C117.686 53.4517 117.348 53.5592 117.001 53.5654C116.874 53.5719 116.748 53.5515 116.63 53.5057C116.512 53.4599 116.406 53.3896 116.317 53.2995C116.155 53.124 116.067 52.8925 116.072 52.6538C116.071 52.3602 116.132 52.0697 116.252 51.8018C116.369 51.5498 116.525 51.3174 116.713 51.1126C116.897 50.9173 117.114 50.7556 117.353 50.6351C117.582 50.505 117.839 50.4324 118.103 50.4235ZM117.972 50.5971C117.868 50.5935 117.765 50.6282 117.685 50.6948C117.449 50.9768 117.274 51.3035 117.169 51.6553C116.993 52.0886 116.895 52.5498 116.881 53.0173C116.878 53.1094 116.911 53.199 116.974 53.267C117 53.2981 117.034 53.3229 117.071 53.3398C117.109 53.3567 117.15 53.3652 117.191 53.3646C117.272 53.3649 117.351 53.336 117.413 53.2832C117.565 53.1267 117.684 52.9425 117.766 52.7406C117.913 52.4539 118.028 52.1518 118.108 51.8398C118.192 51.5447 118.237 51.2402 118.244 50.9336C118.25 50.8396 118.221 50.7466 118.162 50.6731C118.138 50.6471 118.109 50.6269 118.076 50.6137C118.043 50.6006 118.008 50.5949 117.972 50.5971Z" fill="#183059"/>
<path d="M120.865 50.8956L120.501 52.3987C120.382 52.9339 120.2 53.453 119.959 53.9453C119.822 54.2268 119.619 54.4707 119.367 54.6562C119.135 54.8091 118.863 54.8885 118.585 54.8841C118.442 54.8964 118.298 54.8601 118.178 54.781C118.139 54.752 118.107 54.7145 118.084 54.6712C118.062 54.628 118.049 54.5801 118.048 54.5313C118.047 54.4873 118.056 54.4436 118.074 54.4033C118.092 54.363 118.118 54.3271 118.151 54.298C118.231 54.2305 118.334 54.1957 118.439 54.2003C118.479 54.1976 118.519 54.2029 118.558 54.2159C118.596 54.229 118.631 54.2495 118.661 54.2763C118.688 54.3001 118.709 54.3294 118.723 54.3622C118.737 54.395 118.744 54.4305 118.743 54.4662C118.745 54.4935 118.742 54.521 118.734 54.5471C118.725 54.5732 118.712 54.5974 118.694 54.6182C118.661 54.6562 118.645 54.6779 118.645 54.6887C118.659 54.6942 118.674 54.6942 118.688 54.6887C118.751 54.6893 118.811 54.666 118.857 54.6236C118.972 54.5246 119.06 54.3975 119.112 54.2546C119.15 54.1569 119.226 53.891 119.34 53.4623L120.002 50.8576H119.551L119.655 50.4777C119.778 50.4858 119.901 50.4634 120.013 50.4126C120.115 50.337 120.195 50.2359 120.246 50.1196C120.426 49.7509 120.686 49.4266 121.006 49.1699C121.262 48.9812 121.573 48.8804 121.891 48.8823C122.053 48.8703 122.214 48.9144 122.347 49.0071C122.428 49.0792 122.478 49.1797 122.487 49.2877C122.496 49.3957 122.464 49.5031 122.396 49.5878C122.365 49.6197 122.328 49.6449 122.287 49.6617C122.245 49.6785 122.201 49.6866 122.157 49.6854C122.118 49.6869 122.079 49.6805 122.043 49.6665C122.006 49.6525 121.973 49.6313 121.945 49.6041C121.917 49.5799 121.895 49.5499 121.88 49.5161C121.865 49.4823 121.857 49.4457 121.858 49.4087C121.86 49.3469 121.879 49.2868 121.913 49.235C121.94 49.1983 121.959 49.1555 121.967 49.1102C121.971 49.1017 121.973 49.0925 121.973 49.0831C121.973 49.0737 121.971 49.0645 121.967 49.056C121.948 49.0489 121.926 49.0489 121.907 49.056C121.828 49.0641 121.751 49.0898 121.682 49.131C121.614 49.1723 121.555 49.2282 121.511 49.2947C121.239 49.6508 121.053 50.065 120.968 50.5049H121.446L121.326 50.8847L120.865 50.8956Z" fill="#183059"/>
<path d="M123.286 53.1801V51.9863C123.402 52.0903 123.532 52.1779 123.672 52.2468C123.822 52.3289 123.98 52.3962 124.144 52.4475C124.308 52.5 124.474 52.5416 124.643 52.5723C124.794 52.599 124.946 52.6135 125.099 52.6158C125.477 52.64 125.854 52.5553 126.185 52.3716C126.301 52.294 126.395 52.1878 126.458 52.0633C126.52 51.9387 126.55 51.8 126.543 51.6607C126.548 51.5073 126.506 51.356 126.424 51.2266C126.334 51.0954 126.22 50.983 126.087 50.8956C125.928 50.7822 125.759 50.6841 125.582 50.6025L124.958 50.3095C124.719 50.1847 124.497 50.0544 124.29 49.9242C124.092 49.8025 123.91 49.6567 123.748 49.4901C123.597 49.332 123.476 49.1482 123.389 48.9474C123.299 48.7254 123.254 48.4872 123.259 48.2474C123.253 47.9465 123.33 47.6497 123.482 47.39C123.628 47.1464 123.828 46.9402 124.068 46.7877C124.323 46.6246 124.604 46.5054 124.898 46.4349C125.209 46.3587 125.528 46.3204 125.848 46.321C126.403 46.2831 126.959 46.3683 127.477 46.5706V47.7156C127.023 47.4143 126.485 47.2643 125.941 47.2869C125.768 47.2873 125.595 47.3036 125.425 47.3357C125.265 47.3652 125.111 47.4202 124.969 47.4985C124.838 47.5673 124.724 47.6658 124.638 47.7861C124.549 47.9111 124.503 48.0616 124.508 48.2148C124.504 48.3549 124.538 48.4935 124.605 48.6164C124.678 48.74 124.776 48.8472 124.893 48.9311C125.039 49.0353 125.194 49.1278 125.354 49.2079L125.984 49.5009C126.228 49.6257 126.456 49.7614 126.673 49.8971C126.881 50.0321 127.074 50.1885 127.249 50.3637C127.407 50.5227 127.539 50.7059 127.64 50.9064C127.736 51.129 127.784 51.3694 127.781 51.6119C127.791 51.9321 127.714 52.249 127.558 52.5289C127.415 52.7718 127.216 52.9766 126.977 53.1259C126.719 53.2859 126.434 53.3981 126.136 53.4569C125.808 53.5277 125.473 53.5623 125.137 53.56C124.993 53.5693 124.848 53.5693 124.703 53.56C124.529 53.56 124.356 53.5166 124.16 53.484C123.988 53.452 123.818 53.4103 123.65 53.3592C123.521 53.3161 123.399 53.2558 123.286 53.1801Z" fill="#183059"/>
<path d="M136.243 53.446H135.108V50.7328C135.136 50.3399 135.06 49.9467 134.886 49.5932C134.802 49.4732 134.689 49.3774 134.556 49.3154C134.424 49.2535 134.277 49.2276 134.131 49.2405C133.978 49.2444 133.828 49.2873 133.696 49.3651C133.564 49.443 133.454 49.5532 133.377 49.6854C133.161 50.0052 133.053 50.3853 133.067 50.7707V53.484H131.9V50.6622C131.9 49.7289 131.569 49.2622 130.913 49.2622C130.762 49.2622 130.613 49.3006 130.481 49.3736C130.349 49.4467 130.238 49.5522 130.158 49.68C129.948 50.0017 129.843 50.3813 129.86 50.7653V53.4786H128.725V48.4373H129.86V49.2296C130.011 48.9362 130.243 48.6923 130.529 48.5268C130.815 48.3614 131.142 48.2814 131.472 48.2962C131.797 48.2907 132.115 48.3917 132.378 48.5839C132.637 48.7666 132.828 49.03 132.921 49.3327C133.066 49.0187 133.299 48.7536 133.592 48.5696C133.885 48.3856 134.225 48.2907 134.571 48.2962C135.657 48.2962 136.209 48.9764 136.227 50.3366L136.243 53.446Z" fill="#183059"/>
<path d="M141.253 53.446H140.167V52.6646C140.024 52.9415 139.805 53.1723 139.536 53.3307C139.267 53.489 138.959 53.5685 138.648 53.56C138.225 53.583 137.811 53.4409 137.491 53.1638C137.348 53.0234 137.236 52.8539 137.164 52.6666C137.092 52.4794 137.061 52.2788 137.073 52.0785C137.073 51.1343 137.616 50.5826 138.702 50.4234L140.189 50.2118C140.189 49.5009 139.847 49.1265 139.169 49.1265C138.568 49.122 137.987 49.3427 137.54 49.7451V48.79C138.095 48.4676 138.728 48.3042 139.369 48.3179C140.636 48.3179 141.267 48.942 141.264 50.1901L141.253 53.446ZM140.167 50.9824L139.114 51.1289C138.853 51.1516 138.601 51.2333 138.376 51.3677C138.289 51.4411 138.22 51.5349 138.178 51.641C138.135 51.747 138.119 51.8619 138.132 51.9754C138.126 52.0773 138.143 52.1792 138.183 52.2732C138.222 52.3673 138.283 52.4511 138.36 52.5181C138.529 52.661 138.746 52.7346 138.968 52.7243C139.128 52.7271 139.287 52.6962 139.435 52.6336C139.583 52.571 139.716 52.478 139.825 52.3607C140.055 52.1117 140.178 51.7823 140.167 51.4436V50.9824Z" fill="#183059"/>
<path d="M145.345 49.5172C145.172 49.3982 144.964 49.3409 144.754 49.3544C144.587 49.3549 144.422 49.3968 144.276 49.4763C144.129 49.5559 144.004 49.6706 143.912 49.8102C143.669 50.1751 143.551 50.6094 143.576 51.0475V53.446H142.441V48.4373H143.576V49.4683C143.666 49.1514 143.843 48.8657 144.086 48.6435C144.299 48.4557 144.573 48.3516 144.857 48.3505C145.02 48.3394 145.182 48.3712 145.329 48.4427L145.345 49.5172Z" fill="#183059"/>
<path d="M148.879 53.3918C148.602 53.511 148.301 53.5667 148 53.5545C147.028 53.5545 146.545 53.0933 146.545 52.1599V49.3273H145.709V48.4373H146.556V47.276L147.69 46.9559V48.4373H148.89V49.3273H147.69V51.8289C147.669 52.053 147.727 52.2774 147.853 52.4638C147.923 52.5355 148.008 52.5904 148.102 52.6243C148.196 52.6581 148.296 52.6701 148.396 52.6592C148.576 52.6608 148.752 52.6016 148.895 52.4909L148.879 53.3918Z" fill="#183059"/>
<path d="M152.017 53.1801V51.9863C152.131 52.0902 152.259 52.1779 152.397 52.2468C152.548 52.327 152.706 52.3942 152.869 52.4476C153.033 52.4987 153.2 52.5404 153.368 52.5724C153.521 52.599 153.675 52.6135 153.83 52.6158C154.208 52.6413 154.585 52.5564 154.915 52.3716C155.032 52.2943 155.127 52.1883 155.19 52.0638C155.254 51.9393 155.284 51.8004 155.279 51.6607C155.282 51.5068 155.238 51.3556 155.154 51.2266C155.067 51.0956 154.954 50.9831 154.823 50.8956C154.662 50.7834 154.491 50.6854 154.313 50.6025L153.694 50.3095C153.455 50.1847 153.233 50.0544 153.026 49.9242C152.827 49.8034 152.645 49.6575 152.483 49.4901C152.332 49.3332 152.213 49.1491 152.131 48.9474C152.04 48.7255 151.995 48.4872 152 48.2474C151.99 47.9461 152.068 47.6484 152.223 47.39C152.369 47.1465 152.57 46.9402 152.809 46.7877C153.064 46.6238 153.345 46.5045 153.64 46.4349C153.949 46.359 154.266 46.3208 154.584 46.321C155.139 46.2841 155.695 46.3693 156.213 46.5706V47.7156C155.758 47.415 155.221 47.265 154.676 47.2869C154.503 47.2867 154.331 47.3031 154.161 47.3358C153.999 47.3644 153.843 47.4194 153.699 47.4985C153.569 47.5687 153.456 47.6669 153.368 47.7862C153.283 47.9127 153.24 48.0625 153.243 48.2148C153.24 48.355 153.274 48.4935 153.341 48.6164C153.414 48.74 153.512 48.8472 153.629 48.9312C153.773 49.0353 153.926 49.1279 154.085 49.2079L154.714 49.5009C154.959 49.6258 155.192 49.7614 155.409 49.8971C155.607 50.0322 155.789 50.1887 155.952 50.3638C156.114 50.5199 156.246 50.7037 156.343 50.9064C156.444 51.1277 156.494 51.3687 156.489 51.6119C156.501 51.9263 156.426 52.2379 156.272 52.5127C156.131 52.7567 155.932 52.9619 155.691 53.1096C155.435 53.2696 155.152 53.3817 154.856 53.4406C154.526 53.5117 154.189 53.5463 153.851 53.5437C153.707 53.5529 153.562 53.5529 153.417 53.5437C153.249 53.5437 153.075 53.5003 152.874 53.4677C152.704 53.4364 152.535 53.3947 152.369 53.3429C152.245 53.3049 152.126 53.2502 152.017 53.1801Z" fill="#183059"/>
<path d="M161.565 48.4373L159.307 54.2654C158.834 55.3019 158.178 55.8174 157.325 55.8174C157.124 55.8212 156.924 55.7993 156.728 55.7523V54.8081C156.887 54.8642 157.054 54.8953 157.222 54.9003C157.425 54.9029 157.623 54.8441 157.792 54.7318C157.961 54.6195 158.091 54.4588 158.167 54.2708L158.509 53.4514L156.517 48.4536H157.77L158.965 52.0894C158.965 52.1382 159.008 52.2576 159.057 52.453C159.057 52.377 159.1 52.263 159.144 52.1002L160.398 48.4536L161.565 48.4373Z" fill="#183059"/>
<path d="M161.803 53.2886V52.2359C162.203 52.552 162.699 52.7224 163.209 52.7189C163.893 52.7189 164.235 52.5181 164.235 52.1165C164.239 52.012 164.208 51.9092 164.148 51.8235C164.083 51.7381 164.002 51.6662 163.909 51.6118C163.799 51.5418 163.68 51.4853 163.556 51.4436L163.106 51.2808C162.92 51.2043 162.739 51.1173 162.563 51.0203C162.409 50.9391 162.27 50.8328 162.151 50.7056C162.043 50.5923 161.959 50.4598 161.901 50.3149C161.84 50.1406 161.813 49.9566 161.82 49.7722C161.816 49.5484 161.876 49.3283 161.993 49.1373C162.109 48.9501 162.265 48.7907 162.449 48.6707C162.652 48.5431 162.874 48.4479 163.106 48.3885C163.354 48.323 163.609 48.2902 163.866 48.2908C164.29 48.2844 164.711 48.3562 165.109 48.5024V49.4955C164.751 49.2509 164.326 49.1238 163.893 49.1319C163.763 49.1314 163.634 49.146 163.508 49.1753C163.402 49.2006 163.301 49.2427 163.209 49.3001C163.132 49.3476 163.067 49.4126 163.019 49.4901C162.972 49.5605 162.947 49.6439 162.949 49.7288C162.945 49.826 162.969 49.9222 163.019 50.0056C163.069 50.0861 163.138 50.1532 163.22 50.2009C163.323 50.2641 163.432 50.3168 163.546 50.3583L163.974 50.5102C164.192 50.6025 164.387 50.6893 164.555 50.7816C164.715 50.8641 164.863 50.9682 164.995 51.0909C165.112 51.2055 165.206 51.3419 165.272 51.4925C165.341 51.6648 165.374 51.8495 165.369 52.0351C165.377 52.2679 165.316 52.4979 165.196 52.6971C165.076 52.8878 164.914 53.0491 164.723 53.1693C164.516 53.2987 164.289 53.3923 164.05 53.446C163.783 53.5058 163.51 53.535 163.236 53.5328C162.746 53.5564 162.257 53.4731 161.803 53.2886Z" fill="#183059"/>
<path d="M168.876 53.3918C168.601 53.5117 168.302 53.5674 168.002 53.5545C167.03 53.5545 166.542 53.0933 166.542 52.1599V49.3273H165.706V48.4373H166.542V47.276L167.682 46.9559V48.4373H168.876V49.3273H167.682V51.8289C167.659 52.0524 167.715 52.2767 167.839 52.4638C167.909 52.5352 167.994 52.5899 168.088 52.6237C168.182 52.6575 168.283 52.6697 168.382 52.6592C168.563 52.6626 168.739 52.6031 168.881 52.4909L168.876 53.3918Z" fill="#183059"/>
<path d="M173.837 51.2483H170.439C170.433 51.4488 170.468 51.6485 170.542 51.8351C170.615 52.0217 170.727 52.1913 170.868 52.3336C171.181 52.5979 171.583 52.7319 171.992 52.708C172.52 52.7089 173.035 52.5416 173.463 52.2305V53.1421C172.913 53.4526 172.286 53.6012 171.655 53.5708C171.334 53.5894 171.012 53.5384 170.713 53.4213C170.413 53.3042 170.142 53.1239 169.918 52.8925C169.469 52.3572 169.243 51.669 169.288 50.9715C169.26 50.2699 169.51 49.5854 169.983 49.0668C170.196 48.8241 170.458 48.6297 170.752 48.4968C171.046 48.3639 171.365 48.2955 171.688 48.2962C171.985 48.2798 172.283 48.3308 172.559 48.4454C172.834 48.56 173.08 48.7353 173.278 48.9583C173.673 49.4849 173.866 50.1358 173.821 50.7924L173.837 51.2483ZM172.752 50.4451C172.771 50.1045 172.669 49.7679 172.464 49.4955C172.369 49.3822 172.249 49.2924 172.113 49.2331C171.977 49.1738 171.83 49.1466 171.682 49.1536C171.526 49.1501 171.371 49.1803 171.228 49.2421C171.085 49.3039 170.956 49.3959 170.852 49.5118C170.616 49.7782 170.472 50.1127 170.439 50.4669L172.752 50.4451Z" fill="#183059"/>
<path d="M182.207 53.446H181.072V50.7327C181.103 50.3397 181.026 49.9458 180.85 49.5932C180.768 49.4728 180.655 49.3765 180.524 49.3145C180.392 49.2525 180.246 49.2269 180.101 49.2404C179.947 49.2438 179.798 49.2865 179.665 49.3644C179.533 49.4423 179.423 49.5529 179.346 49.6854C179.131 50.0052 179.022 50.3853 179.037 50.7707V53.484H177.897V50.6622C177.897 49.7288 177.566 49.2622 176.904 49.2622C176.753 49.2632 176.605 49.302 176.473 49.375C176.341 49.448 176.23 49.5528 176.149 49.68C175.943 50.0033 175.841 50.3821 175.856 50.7653V53.4786H174.722V48.4373H175.867V49.2296C176.017 48.9413 176.246 48.7009 176.526 48.5359C176.806 48.3709 177.127 48.2879 177.452 48.2962C177.779 48.2907 178.099 48.3917 178.364 48.5838C178.623 48.766 178.814 49.0296 178.907 49.3327C179.053 49.0196 179.286 48.7552 179.579 48.5714C179.872 48.3875 180.211 48.292 180.557 48.2962C181.642 48.2962 182.185 48.9764 182.185 50.3366L182.207 53.446Z" fill="#183059"/>
<path d="M183.081 53.2886V52.2359C183.481 52.552 183.977 52.7224 184.487 52.7189C185.171 52.7189 185.513 52.5181 185.513 52.1165C185.513 52.0125 185.482 51.9108 185.426 51.8235C185.361 51.7381 185.28 51.6662 185.187 51.6118C185.077 51.5418 184.958 51.4853 184.834 51.4436L184.384 51.2808C184.199 51.2031 184.017 51.1161 183.841 51.0203C183.689 50.9377 183.552 50.8314 183.434 50.7056C183.325 50.5938 183.24 50.4608 183.184 50.3149C183.124 50.1406 183.096 49.9566 183.103 49.7722C183.098 49.549 183.156 49.3288 183.271 49.1373C183.389 48.9499 183.546 48.7906 183.732 48.6707C183.935 48.5431 184.157 48.4479 184.389 48.3885C184.637 48.323 184.893 48.2902 185.149 48.2908C185.573 48.2844 185.994 48.3562 186.392 48.5024V49.4955C186.035 49.2509 185.609 49.1238 185.176 49.1319C185.045 49.1317 184.914 49.1463 184.785 49.1753C184.682 49.2016 184.583 49.2437 184.492 49.3001C184.415 49.3476 184.35 49.4126 184.302 49.4901C184.255 49.5605 184.23 49.6439 184.232 49.7288C184.228 49.826 184.252 49.9222 184.302 50.0056C184.352 50.0861 184.421 50.1532 184.503 50.2009C184.606 50.2651 184.715 50.3179 184.829 50.3583L185.258 50.5103C185.475 50.6025 185.67 50.6893 185.838 50.7816C185.998 50.8641 186.146 50.9682 186.278 51.0909C186.396 51.2055 186.49 51.3419 186.555 51.4925C186.624 51.6648 186.657 51.8495 186.653 52.0351C186.657 52.2676 186.597 52.4968 186.479 52.6971C186.359 52.8878 186.197 53.0491 186.007 53.1693C185.798 53.3001 185.569 53.3938 185.328 53.446C185.063 53.5061 184.792 53.5353 184.519 53.5328C184.028 53.5572 183.537 53.4739 183.081 53.2886Z" fill="#183059"/>
<path d="M81.3167 62.4867L80.6816 64.6573L80.6165 64.9178C80.6149 64.9431 80.6149 64.9684 80.6165 64.9937C80.6171 65.0181 80.6268 65.0413 80.6436 65.0588C80.6506 65.0683 80.6596 65.076 80.6699 65.0817C80.6802 65.0873 80.6916 65.0906 80.7033 65.0914C80.7752 65.0759 80.8411 65.0401 80.8933 64.9883C80.9767 64.8914 81.0546 64.79 81.1267 64.6844L81.2407 64.7441C81.1202 64.982 80.9521 65.1926 80.7467 65.3627C80.5911 65.4838 80.401 65.5523 80.2039 65.5581C80.1519 65.5618 80.0996 65.5551 80.0502 65.5383C80.0008 65.5216 79.9552 65.4951 79.9162 65.4604C79.8841 65.4285 79.8589 65.3904 79.8421 65.3484C79.8253 65.3064 79.8173 65.2614 79.8185 65.2162C79.8354 65.055 79.8719 64.8965 79.9271 64.7441L80.0031 64.4782C79.8193 64.8277 79.5728 65.1404 79.2757 65.4007C79.1544 65.4996 79.0034 65.555 78.8469 65.5581C78.758 65.5641 78.6692 65.5436 78.5919 65.4992C78.5146 65.4547 78.4522 65.3884 78.4127 65.3085C78.3208 65.1425 78.274 64.9554 78.277 64.7658C78.2881 64.3874 78.3846 64.0164 78.5592 63.6805C78.7278 63.3092 78.9806 62.9822 79.2974 62.7254C79.49 62.549 79.737 62.4437 79.9977 62.427C80.0509 62.4235 80.1044 62.4309 80.1547 62.4486C80.2051 62.4663 80.2514 62.494 80.2908 62.5301C80.3833 62.6393 80.4418 62.7733 80.459 62.9154L80.573 62.5192L81.3167 62.4867ZM80.2691 63.1053C80.2795 62.9734 80.2512 62.8414 80.1876 62.7254C80.1703 62.6997 80.1469 62.6788 80.1193 62.6646C80.0918 62.6504 80.0612 62.6433 80.0302 62.644C79.95 62.6494 79.8746 62.6842 79.8185 62.7417C79.6127 62.984 79.4527 63.2616 79.3463 63.5611C79.1939 63.9034 79.1091 64.272 79.0966 64.6464C79.0886 64.7332 79.1075 64.8204 79.1509 64.896C79.1652 64.918 79.1844 64.9363 79.207 64.9494C79.2297 64.9626 79.255 64.9704 79.2812 64.972C79.3394 64.9673 79.3959 64.9498 79.4466 64.9207C79.4972 64.8916 79.5409 64.8517 79.5743 64.8038C79.9767 64.3298 80.2197 63.7413 80.2691 63.1216V63.1053Z" fill="#183059"/>
<path d="M83.3305 62.4432L82.9289 63.8433C83.1132 63.5501 83.3163 63.2692 83.5368 63.0022C83.6848 62.8303 83.8566 62.6805 84.047 62.5572C84.1716 62.4871 84.3112 62.448 84.4541 62.4432C84.5082 62.4424 84.5618 62.453 84.6115 62.4746C84.6611 62.4961 84.7055 62.528 84.7418 62.568C84.7832 62.6113 84.8156 62.6624 84.837 62.7183C84.8585 62.7742 84.8685 62.8338 84.8667 62.8936C84.8618 63.0452 84.8344 63.1952 84.7852 63.3386L84.3673 64.7332C84.3435 64.8093 84.3272 64.8874 84.3184 64.9666C84.3109 64.9857 84.3109 65.0071 84.3184 65.0263C84.3268 65.0305 84.3361 65.0328 84.3456 65.0328C84.355 65.0328 84.3643 65.0305 84.3727 65.0263C84.3936 65.0347 84.417 65.0347 84.4378 65.0263C84.5273 64.9486 84.6059 64.8591 84.6713 64.7604C84.6989 64.7131 84.7298 64.6678 84.7635 64.6247L84.8884 64.7007C84.5681 65.2433 84.2316 65.5038 83.8788 65.5038C83.7645 65.5106 83.652 65.4738 83.5639 65.4007C83.5274 65.368 83.4982 65.3278 83.4786 65.2829C83.4589 65.2379 83.4491 65.1893 83.45 65.1402C83.4587 65.0015 83.4861 64.8646 83.5314 64.7332L83.9385 63.3386C83.9601 63.2737 83.9728 63.2061 83.9765 63.1378C83.9781 63.1255 83.9764 63.1131 83.9716 63.1016C83.9669 63.0902 83.9592 63.0802 83.9493 63.0727C83.9264 63.0652 83.9017 63.0652 83.8788 63.0727C83.762 63.0904 83.6558 63.1503 83.5802 63.2409C83.2203 63.6156 82.9266 64.0486 82.7117 64.5216L82.4403 65.4929H81.6099L82.2232 63.3983C82.2676 63.2552 82.2967 63.1079 82.3101 62.9587C82.3112 62.9242 82.3005 62.8904 82.2797 62.8628C82.259 62.8352 82.2295 62.8154 82.1961 62.8068C82.1242 62.7947 82.0508 62.7947 81.979 62.8068L82.0115 62.682L83.0971 62.4921L83.3305 62.4432Z" fill="#183059"/>
<path d="M89.019 60.9401L87.9334 64.5759C87.8883 64.7104 87.8538 64.8483 87.8303 64.9883C87.8301 64.9996 87.8324 65.0109 87.8371 65.0212C87.8418 65.0316 87.8487 65.0407 87.8574 65.048C87.8659 65.0519 87.8752 65.0539 87.8846 65.0539C87.8939 65.0539 87.9032 65.0519 87.9117 65.048C87.96 65.0449 88.0058 65.0258 88.042 64.9937C88.1582 64.895 88.2573 64.7776 88.3351 64.6464L88.4545 64.7115C88.1451 65.2542 87.8086 65.5147 87.4395 65.5147C87.3304 65.5201 87.2234 65.4832 87.1409 65.4116C87.1055 65.3771 87.0775 65.3357 87.0588 65.29C87.0401 65.2442 87.0311 65.1951 87.0324 65.1457C87.0403 64.9975 87.0695 64.8513 87.1192 64.7115L87.2169 64.3751C87.0385 64.7334 86.7999 65.0583 86.5113 65.3356C86.3866 65.4425 86.2302 65.5054 86.0662 65.5147C85.9869 65.5134 85.9089 65.4947 85.8377 65.46C85.7664 65.4253 85.7036 65.3754 85.6537 65.3139C85.5294 65.147 85.4696 64.9408 85.4854 64.7333C85.4867 64.4017 85.5589 64.0742 85.6971 63.7728C85.8237 63.4872 85.992 63.2221 86.1965 62.9859C86.3492 62.8048 86.533 62.6523 86.7393 62.5355C86.894 62.4499 87.0673 62.4033 87.2441 62.3998C87.3228 62.3981 87.4009 62.4148 87.472 62.4487C87.5567 62.5029 87.6334 62.5687 87.7 62.644L87.9334 61.8626C87.9813 61.7223 88.0105 61.5764 88.0203 61.4285C88.0205 61.4042 88.0158 61.3802 88.0065 61.3578C87.9972 61.3354 87.9834 61.3152 87.966 61.2983C87.9225 61.2605 87.8661 61.241 87.8086 61.244H87.6946L87.7272 61.1192L88.8128 60.9184L89.019 60.9401ZM87.586 63.0076C87.5936 62.9059 87.5668 62.8047 87.51 62.72C87.4879 62.6921 87.4599 62.6694 87.428 62.6534C87.3961 62.6375 87.3611 62.6287 87.3255 62.6278C87.239 62.6356 87.1581 62.6741 87.0975 62.7363C86.8811 62.981 86.7168 63.2672 86.6144 63.5774C86.4626 63.9199 86.3778 64.2883 86.3647 64.6627C86.3579 64.7443 86.3769 64.8259 86.419 64.896C86.4321 64.9179 86.4503 64.9362 86.4721 64.9494C86.4938 64.9626 86.5185 64.9704 86.5439 64.972C86.6309 64.9662 86.7125 64.9274 86.7718 64.8635C87.0094 64.6198 87.1942 64.3298 87.3146 64.0115C87.465 63.6972 87.55 63.3557 87.5643 63.0076H87.586Z" fill="#183059"/>
<path d="M97.1611 65.4658H95.8855L95.2504 63.6805H92.493L91.885 65.4658H90.6475L93.2746 58.4493H94.5828L97.1611 65.4658ZM94.9464 62.7525L93.9694 59.9524C93.9289 59.8081 93.8981 59.6613 93.8771 59.5129C93.8593 59.6623 93.8266 59.8095 93.7794 59.9524L92.8187 62.7308L94.9464 62.7525Z" fill="#183059"/>
<path d="M101.064 61.537C100.891 61.4172 100.682 61.3598 100.472 61.3742C100.306 61.3751 100.141 61.4172 99.9947 61.4967C99.848 61.5763 99.7231 61.6907 99.6311 61.83C99.3896 62.1959 99.2717 62.6295 99.2946 63.0673V65.4658H98.1602V60.4571H99.2946V61.4881C99.3844 61.1697 99.5633 60.8835 99.8103 60.6633C100.022 60.4738 100.297 60.3694 100.581 60.3703C100.742 60.3592 100.903 60.391 101.048 60.4625L101.064 61.537Z" fill="#183059"/>
<path d="M104.939 65.4115C104.662 65.5308 104.362 65.5864 104.06 65.5743C103.089 65.5743 102.605 65.1131 102.605 64.1797V61.347H101.77V60.4571H102.589V59.2958L103.724 58.9756V60.4571H104.923V61.347H103.724V63.8487C103.704 64.0744 103.761 64.3002 103.886 64.489C103.957 64.5594 104.042 64.6131 104.136 64.646C104.23 64.6788 104.33 64.6901 104.429 64.6789C104.61 64.6806 104.786 64.6213 104.929 64.5107L104.939 65.4115Z" fill="#183059"/>
<path d="M106.627 59.4044C106.451 59.4074 106.28 59.3434 106.15 59.2253C106.086 59.1669 106.036 59.0955 106.002 59.0159C105.968 58.9363 105.952 58.8504 105.954 58.764C105.953 58.6769 105.969 58.5904 106.003 58.51C106.036 58.4296 106.086 58.3572 106.15 58.2973C106.282 58.178 106.454 58.1119 106.633 58.1119C106.811 58.1119 106.983 58.178 107.116 58.2973C107.181 58.356 107.233 58.4281 107.267 58.5087C107.302 58.5893 107.319 58.6764 107.317 58.764C107.318 58.8491 107.3 58.9334 107.266 59.0112C107.231 59.0889 107.18 59.1582 107.116 59.2144C107.052 59.2779 106.975 59.3276 106.891 59.3602C106.807 59.3929 106.718 59.4079 106.627 59.4044ZM107.17 65.4658H106.036V60.4571H107.17V65.4658Z" fill="#183059"/>
<path d="M111.648 58.9756C111.482 58.8838 111.295 58.837 111.106 58.84C110.563 58.84 110.281 59.1547 110.281 59.7788V60.4571H111.442V61.347H110.286V65.4658H109.152V61.347H108.294V60.4571H109.152V59.6431C109.141 59.41 109.181 59.1773 109.27 58.9616C109.359 58.7459 109.495 58.5525 109.667 58.395C110.028 58.0864 110.49 57.9238 110.965 57.9392C111.191 57.9291 111.417 57.9603 111.632 58.0314L111.648 58.9756Z" fill="#183059"/>
<path d="M112.978 59.4043C112.804 59.4082 112.634 59.344 112.506 59.2253C112.441 59.1679 112.389 59.0968 112.354 59.0171C112.32 58.9373 112.303 58.8509 112.305 58.764C112.303 58.6763 112.32 58.5892 112.355 58.5087C112.389 58.4281 112.441 58.356 112.506 58.2973C112.634 58.1771 112.803 58.111 112.978 58.1128C113.161 58.1099 113.337 58.1758 113.472 58.2973C113.536 58.3572 113.586 58.4296 113.62 58.51C113.653 58.5904 113.67 58.6769 113.668 58.764C113.669 58.8486 113.652 58.9324 113.618 59.01C113.584 59.0876 113.535 59.1573 113.472 59.2144C113.407 59.2775 113.33 59.3269 113.245 59.3595C113.16 59.3921 113.069 59.4074 112.978 59.4043ZM113.521 65.4658H112.387V60.4571H113.521V65.4658Z" fill="#183059"/>
<path d="M118.754 65.2325C118.317 65.4734 117.825 65.5933 117.326 65.5798C116.995 65.5947 116.664 65.5407 116.355 65.4211C116.046 65.3016 115.765 65.119 115.53 64.8852C115.299 64.6455 115.12 64.362 115.001 64.0516C114.883 63.7412 114.828 63.4101 114.84 63.0781C114.824 62.7145 114.881 62.3513 115.007 62.0101C115.134 61.6688 115.328 61.3566 115.578 61.092C115.837 60.8367 116.145 60.6378 116.484 60.508C116.824 60.3781 117.186 60.3202 117.549 60.3377C117.965 60.3307 118.377 60.4121 118.759 60.5765V61.6618C118.44 61.4123 118.047 61.275 117.641 61.2711C117.421 61.2638 117.202 61.3036 116.999 61.3878C116.796 61.4721 116.613 61.5988 116.463 61.7595C116.306 61.9303 116.185 62.1304 116.106 62.3483C116.026 62.5662 115.991 62.7977 116.002 63.0293C115.978 63.4811 116.134 63.9239 116.436 64.2611C116.587 64.4131 116.769 64.5318 116.969 64.6093C117.169 64.6869 117.383 64.7217 117.598 64.7115C118.023 64.705 118.432 64.5495 118.754 64.272V65.2325Z" fill="#183059"/>
<path d="M120.588 59.4044C120.412 59.4074 120.241 59.3434 120.111 59.2253C120.047 59.1669 119.996 59.0955 119.963 59.0159C119.929 58.9363 119.913 58.8504 119.915 58.764C119.913 58.6769 119.93 58.5904 119.964 58.51C119.997 58.4296 120.047 58.3572 120.111 58.2973C120.243 58.178 120.415 58.1119 120.594 58.1119C120.772 58.1119 120.944 58.178 121.077 58.2973C121.142 58.356 121.194 58.4281 121.228 58.5087C121.263 58.5893 121.28 58.6764 121.278 58.764C121.279 58.8491 121.261 58.9334 121.226 59.0112C121.192 59.0889 121.141 59.1582 121.077 59.2144C121.013 59.2779 120.936 59.3276 120.852 59.3602C120.768 59.3929 120.678 59.4079 120.588 59.4044ZM121.131 65.4658H119.997V60.4571H121.131V65.4658Z" fill="#183059"/>
<path d="M126.619 65.4658H125.533V64.6844C125.389 64.9612 125.171 65.1921 124.902 65.3504C124.633 65.5088 124.325 65.5883 124.013 65.5797C123.589 65.6042 123.172 65.4621 122.852 65.1836C122.709 65.0424 122.599 64.8727 122.527 64.6856C122.455 64.4986 122.423 64.2984 122.434 64.0983C122.434 63.1541 122.977 62.6006 124.062 62.4703L125.549 62.2641C125.549 61.5478 125.213 61.1788 124.534 61.1788C123.934 61.1764 123.353 61.3968 122.906 61.7974V60.8044C123.463 60.4825 124.097 60.3192 124.741 60.3323C126.007 60.3323 126.639 60.9563 126.635 62.2044L126.619 65.4658ZM125.533 63.0021L124.485 63.1486C124.224 63.1697 123.971 63.2514 123.747 63.3874C123.659 63.4606 123.59 63.5542 123.547 63.6602C123.503 63.7662 123.486 63.8812 123.498 63.9952C123.492 64.097 123.509 64.1989 123.549 64.293C123.588 64.3871 123.649 64.4708 123.726 64.5378C123.897 64.6811 124.116 64.7547 124.339 64.744C124.499 64.7469 124.659 64.716 124.806 64.6534C124.954 64.5907 125.087 64.4978 125.197 64.3805C125.423 64.1297 125.544 63.8011 125.533 63.4634V63.0021Z" fill="#183059"/>
<path d="M129.284 65.4658H128.144V58.064H129.284V65.4658Z" fill="#183059"/>
<path d="M135.119 65.4658H133.919V58.4493H135.119V65.4658Z" fill="#183059"/>
<path d="M141.318 65.4658H140.183V62.644C140.183 61.7052 139.852 61.2385 139.19 61.2385C139.027 61.2351 138.865 61.2684 138.717 61.336C138.568 61.4037 138.437 61.5039 138.332 61.6293C138.104 61.9027 137.985 62.2502 137.996 62.606V65.4658H136.856V60.4571H137.996V61.2874C138.152 60.9934 138.387 60.7488 138.675 60.5811C138.963 60.4133 139.291 60.3291 139.624 60.3377C139.86 60.3249 140.096 60.3673 140.313 60.4615C140.529 60.5557 140.721 60.6991 140.873 60.8804C141.188 61.3277 141.34 61.8701 141.301 62.4161L141.318 65.4658Z" fill="#183059"/>
<path d="M145.47 65.4115C145.195 65.5304 144.896 65.586 144.596 65.5743C143.625 65.5743 143.136 65.1131 143.136 64.1797V61.347H142.3V60.4571H143.136V59.2958L144.271 58.9756V60.4571H145.47V61.347H144.271V63.8487C144.251 64.0744 144.308 64.3002 144.433 64.489C144.505 64.5585 144.59 64.6115 144.684 64.6443C144.778 64.6771 144.877 64.689 144.976 64.6789C145.157 64.6806 145.333 64.6213 145.476 64.5107L145.47 65.4115Z" fill="#183059"/>
<path d="M150.79 63.2681H147.376C147.368 63.4684 147.401 63.6682 147.474 63.855C147.547 64.0417 147.658 64.2114 147.799 64.3534C148.113 64.6148 148.514 64.7484 148.923 64.7278C149.453 64.728 149.97 64.5608 150.399 64.2503V65.1619C149.847 65.4717 149.219 65.6203 148.586 65.5906C148.266 65.6091 147.945 65.5581 147.646 65.441C147.347 65.3239 147.077 65.1435 146.855 64.9123C146.405 64.377 146.18 63.6888 146.225 62.9913C146.194 62.2904 146.442 61.6057 146.914 61.0866C147.132 60.8477 147.398 60.6582 147.695 60.5309C147.991 60.4036 148.312 60.3414 148.635 60.3486C148.933 60.3321 149.231 60.3831 149.506 60.4978C149.781 60.6124 150.027 60.7877 150.225 61.0106C150.62 61.5372 150.813 62.1881 150.768 62.8448L150.79 63.2681ZM149.704 62.465C149.719 62.1249 149.618 61.79 149.417 61.5153C149.321 61.4016 149.2 61.3115 149.063 61.2522C148.927 61.1929 148.778 61.166 148.63 61.1734C148.474 61.1707 148.321 61.2013 148.178 61.2631C148.036 61.3249 147.908 61.4164 147.805 61.5316C147.569 61.7898 147.422 62.117 147.387 62.465H149.704Z" fill="#183059"/>
<path d="M153.151 65.4658H152.011V58.064H153.151V65.4658Z" fill="#183059"/>
<path d="M155.908 65.4658H154.769V58.064H155.908V65.4658Z" fill="#183059"/>
<path d="M158.096 59.4044C157.92 59.4074 157.749 59.3434 157.618 59.2253C157.554 59.1669 157.504 59.0955 157.47 59.0159C157.436 58.9363 157.42 58.8504 157.423 58.764C157.421 58.6769 157.437 58.5904 157.471 58.51C157.505 58.4296 157.555 58.3572 157.618 58.2973C157.751 58.178 157.923 58.1119 158.101 58.1119C158.28 58.1119 158.452 58.178 158.584 58.2973C158.649 58.356 158.701 58.4281 158.736 58.5087C158.77 58.5893 158.787 58.6764 158.785 58.764C158.786 58.8491 158.768 58.9334 158.734 59.0112C158.699 59.0889 158.648 59.1582 158.584 59.2144C158.52 59.2779 158.444 59.3276 158.36 59.3602C158.276 59.3929 158.186 59.4079 158.096 59.4044ZM158.638 65.4658H157.504V60.4571H158.638V65.4658Z" fill="#183059"/>
<path d="M164.843 65.0643C164.843 66.9039 163.915 67.8209 162.069 67.8209C161.483 67.8336 160.9 67.7226 160.359 67.4953V66.4589C160.831 66.747 161.37 66.9078 161.923 66.9256C163.113 66.9256 163.708 66.3413 163.708 65.1728V64.6301C163.548 64.8952 163.328 65.1188 163.065 65.283C162.802 65.4472 162.505 65.5474 162.196 65.5754C161.888 65.6034 161.577 65.5584 161.289 65.4442C161.001 65.3299 160.744 65.1496 160.539 64.9177C160.151 64.404 159.959 63.7694 159.996 63.127C159.957 62.4014 160.17 61.6847 160.598 61.0975C160.795 60.85 161.048 60.6526 161.335 60.5215C161.623 60.3904 161.938 60.3293 162.254 60.3432C162.551 60.3279 162.846 60.3961 163.106 60.5399C163.366 60.6838 163.58 60.8976 163.725 61.1571V60.4625H164.859L164.843 65.0643ZM163.714 63.1704V62.5192C163.722 62.1848 163.597 61.8609 163.367 61.6184C163.256 61.4973 163.121 61.4013 162.97 61.3367C162.819 61.2722 162.657 61.2405 162.493 61.244C162.298 61.2357 162.105 61.2749 161.929 61.3581C161.753 61.4413 161.6 61.566 161.483 61.7215C161.218 62.112 161.09 62.5798 161.119 63.051C161.096 63.4734 161.219 63.891 161.467 64.234C161.574 64.3771 161.715 64.4922 161.877 64.5696C162.038 64.6471 162.216 64.6846 162.395 64.679C162.576 64.6846 162.755 64.6495 162.921 64.5762C163.086 64.503 163.233 64.3934 163.35 64.2557C163.599 63.9499 163.728 63.5642 163.714 63.1704Z" fill="#183059"/>
<path d="M170.7 63.2681H167.285C167.278 63.4688 167.312 63.6688 167.386 63.8556C167.46 64.0424 167.572 64.2119 167.714 64.3534C168.027 64.6177 168.429 64.7517 168.838 64.7278C169.366 64.7279 169.881 64.5607 170.309 64.2503V65.1619C169.759 65.4724 169.132 65.621 168.501 65.5906C168.18 65.6092 167.858 65.5582 167.559 65.4411C167.259 65.324 166.988 65.1437 166.764 64.9123C166.315 64.377 166.089 63.6888 166.135 62.9913C166.106 62.2897 166.356 61.6052 166.829 61.0866C167.047 60.8474 167.313 60.6577 167.609 60.5304C167.906 60.4031 168.227 60.3411 168.55 60.3486C168.848 60.3325 169.146 60.3837 169.421 60.4983C169.696 60.6129 169.942 60.788 170.141 61.0106C170.535 61.5372 170.728 62.1881 170.683 62.8448L170.7 63.2681ZM169.614 62.4649C169.634 62.1243 169.532 61.7877 169.326 61.5153C169.231 61.402 169.111 61.3122 168.976 61.2529C168.84 61.1936 168.693 61.1664 168.545 61.1734C168.389 61.1699 168.234 61.2001 168.09 61.2619C167.947 61.3237 167.819 61.4157 167.714 61.5316C167.478 61.7897 167.332 62.117 167.296 62.4649H169.614Z" fill="#183059"/>
<path d="M176.41 65.4658H175.276V62.644C175.276 61.7052 174.944 61.2385 174.282 61.2385C174.119 61.2351 173.957 61.2684 173.809 61.336C173.66 61.4037 173.529 61.5039 173.425 61.6293C173.197 61.9027 173.077 62.2502 173.088 62.606V65.4658H171.948V60.4571H173.088V61.2874C173.244 60.9934 173.48 60.7488 173.767 60.5811C174.055 60.4133 174.384 60.3291 174.717 60.3377C174.952 60.3249 175.188 60.3673 175.405 60.4615C175.622 60.5557 175.813 60.6991 175.965 60.8804C176.284 61.3226 176.441 61.861 176.41 62.4053V65.4658Z" fill="#183059"/>
<path d="M181.496 65.2325C181.06 65.4734 180.567 65.5933 180.069 65.5798C179.737 65.5947 179.407 65.5407 179.097 65.4211C178.788 65.3016 178.507 65.1191 178.272 64.8852C178.043 64.6451 177.864 64.3614 177.747 64.051C177.629 63.7406 177.575 63.4098 177.588 63.0781C177.571 62.7149 177.627 62.3519 177.753 62.0107C177.879 61.6695 178.072 61.3571 178.321 61.092C178.579 60.837 178.888 60.6383 179.227 60.5085C179.566 60.3786 179.928 60.3205 180.291 60.3377C180.707 60.3307 181.12 60.4121 181.502 60.5765V61.6618C181.182 61.4123 180.789 61.275 180.383 61.2711C180.164 61.2638 179.945 61.3036 179.742 61.3878C179.538 61.4721 179.356 61.5988 179.206 61.7595C179.049 61.9303 178.927 62.1304 178.848 62.3483C178.769 62.5663 178.734 62.7977 178.744 63.0293C178.721 63.4811 178.877 63.9239 179.178 64.2611C179.33 64.4132 179.511 64.5318 179.711 64.6094C179.912 64.6869 180.126 64.7217 180.34 64.7115C180.765 64.705 181.174 64.5495 181.496 64.272V65.2325Z" fill="#183059"/>
<path d="M187 63.2681H183.586C183.58 63.4686 183.615 63.6683 183.688 63.8549C183.762 64.0415 183.873 64.2111 184.014 64.3534C184.327 64.6177 184.729 64.7517 185.138 64.7278C185.667 64.7279 186.181 64.5608 186.609 64.2503V65.1619C186.059 65.4724 185.432 65.621 184.802 65.5906C184.48 65.6092 184.159 65.5582 183.859 65.4411C183.559 65.324 183.288 65.1437 183.065 64.9123C182.615 64.377 182.389 63.6888 182.435 62.9913C182.406 62.2897 182.656 61.6052 183.13 61.0866C183.347 60.8477 183.613 60.6582 183.91 60.5309C184.207 60.4036 184.527 60.3414 184.85 60.3486C185.148 60.3321 185.446 60.3831 185.721 60.4978C185.997 60.6124 186.243 60.7877 186.441 61.0106C186.836 61.5372 187.028 62.1881 186.984 62.8448L187 63.2681ZM185.914 62.465C185.934 62.1243 185.832 61.7877 185.627 61.5153C185.531 61.402 185.411 61.3122 185.276 61.2529C185.14 61.1936 184.993 61.1664 184.845 61.1734C184.689 61.1699 184.534 61.2001 184.391 61.2619C184.247 61.3237 184.119 61.4157 184.014 61.5316C183.779 61.7898 183.632 62.117 183.597 62.465H185.914Z" fill="#183059"/>
<path d="M71.4486 43.8193H70.3901V67.9946H71.4486V43.8193Z" fill="#183059"/>
<path d="M0 48.5024H1.75867L5.72654 53.3863V49.6257C5.75924 49.3699 5.71183 49.1101 5.59084 48.8823C5.5197 48.8124 5.43454 48.7583 5.34098 48.7237C5.24741 48.6891 5.14757 48.6747 5.04804 48.6815H4.80921V48.5024H7.0564V48.6815H6.82299C6.71295 48.6704 6.60189 48.6875 6.50027 48.7312C6.39866 48.7748 6.30984 48.8437 6.2422 48.9311C6.14774 49.1497 6.11038 49.3887 6.13364 49.6257V55.0957H5.9708L1.69896 49.8699V53.8639C1.66836 54.1191 1.71367 54.3777 1.82924 54.6073C1.8999 54.6782 1.98485 54.7333 2.07844 54.7688C2.17202 54.8044 2.27211 54.8196 2.37204 54.8135H2.60001V54.9872H0.358248V54.8081H0.586224C0.697006 54.8186 0.808663 54.8013 0.911044 54.7577C1.01343 54.7141 1.10328 54.6456 1.17245 54.5585C1.26351 54.3371 1.29892 54.0967 1.27558 53.8584V49.3815C1.14985 49.2208 1.00596 49.0751 0.846768 48.9474C0.716283 48.8614 0.573545 48.7955 0.423384 48.7521C0.286659 48.7072 0.143893 48.6834 0 48.6815L0 48.5024Z" fill="#183059"/>
<path d="M11.2957 52.8165H8.78256L8.34289 53.8421C8.2573 54.0121 8.20218 54.1958 8.18005 54.3848C8.18213 54.4361 8.19593 54.4862 8.22039 54.5314C8.24486 54.5765 8.27933 54.6155 8.32118 54.6453C8.50944 54.7413 8.71775 54.7915 8.92911 54.7918V54.9654H6.88818V54.808C7.08259 54.7931 7.26971 54.7277 7.43098 54.6181C7.66818 54.3433 7.85224 54.0268 7.97378 53.6848L10.2535 48.3505H10.4218L12.6799 53.7444C12.7846 54.0559 12.9528 54.3423 13.1738 54.5856C13.349 54.7274 13.5671 54.8058 13.7926 54.808V54.9817H11.2197V54.808C11.4093 54.8159 11.5972 54.7708 11.7625 54.6778C11.8048 54.6464 11.8391 54.6054 11.8627 54.5583C11.8863 54.5112 11.8984 54.4592 11.8982 54.4065C11.8724 54.1767 11.8082 53.953 11.7082 53.7444L11.2957 52.8165ZM11.16 52.4638L10.0744 49.8428L8.9454 52.4638H11.16Z" fill="#183059"/>
<path d="M19.1281 48.5024L14.8671 54.5964H17.5268C17.8609 54.6168 18.192 54.523 18.4659 54.3305C18.7538 54.0277 18.9545 53.6527 19.0467 53.2452L19.2041 53.2778L18.9001 54.9926H13.6187V54.8081L17.7819 48.8931H15.703C15.4485 48.8772 15.1934 48.9142 14.9539 49.0017C14.8065 49.0726 14.6836 49.186 14.6011 49.3273C14.4856 49.5799 14.4105 49.8491 14.3786 50.125H14.1994L14.3297 48.497L19.1281 48.5024Z" fill="#183059"/>
<path d="M23.5682 52.8165H21.055L20.6262 53.8421C20.5406 54.0121 20.4855 54.1958 20.4634 54.3848C20.4654 54.4361 20.4792 54.4862 20.5037 54.5314C20.5282 54.5765 20.5626 54.6155 20.6045 54.6453C20.7947 54.7412 21.0048 54.7914 21.2179 54.7918V54.9654H19.1606V54.808C19.3554 54.7947 19.5429 54.7291 19.7034 54.6181C19.9426 54.3447 20.1268 54.0278 20.2462 53.6848L22.526 48.3505H22.6943L24.9523 53.7444C25.0593 54.0549 25.2272 54.3409 25.4463 54.5856C25.6194 54.7237 25.8328 54.8018 26.0542 54.808V54.9817H23.4922V54.808C23.6817 54.8156 23.8696 54.7705 24.035 54.6778C24.0767 54.6458 24.1105 54.6047 24.134 54.5577C24.1575 54.5107 24.1701 54.459 24.1707 54.4065C24.1449 54.1761 24.0788 53.952 23.9753 53.7444L23.5682 52.8165ZM23.4325 52.4638L22.3469 49.8428L21.2179 52.4638H23.4325Z" fill="#183059"/>
<path d="M32.3889 54.9872H30.6574L28.4862 51.9537C28.3234 51.9537 28.1877 51.9537 28.09 51.9537H27.9543H27.8023V53.8422C27.772 54.1032 27.8192 54.3674 27.938 54.6019C28.0071 54.6752 28.0916 54.7323 28.1855 54.7689C28.2794 54.8055 28.3803 54.8207 28.4808 54.8135H28.7305V54.9872H25.9351V54.8081H26.1793C26.293 54.8182 26.4074 54.7984 26.5111 54.7508C26.6149 54.7033 26.7044 54.6295 26.771 54.5368C26.8577 54.3142 26.8912 54.0745 26.8687 53.8367V49.6529C26.9006 49.3923 26.8553 49.1282 26.7384 48.8931C26.668 48.8216 26.5832 48.7657 26.4897 48.7292C26.3961 48.6927 26.2959 48.6765 26.1956 48.6815H25.9513V48.5024H28.3179C28.8292 48.4816 29.3408 48.5328 29.8378 48.6544C30.1644 48.7477 30.4556 48.9367 30.6737 49.197C30.9016 49.4666 31.0232 49.8101 31.0157 50.163C31.021 50.5454 30.8814 50.9157 30.6248 51.1994C30.298 51.5299 29.8737 51.7467 29.4144 51.8181L30.7551 53.6794C30.966 54.0086 31.2344 54.2972 31.5476 54.5313C31.8095 54.6849 32.1026 54.7776 32.4052 54.8027L32.3889 54.9872ZM27.7806 51.6553H28.052C28.5516 51.6908 29.0476 51.5485 29.4524 51.2537C29.603 51.1294 29.7233 50.9724 29.8041 50.7947C29.885 50.617 29.9244 50.4232 29.9192 50.2281C29.9288 50.0446 29.8994 49.8611 29.833 49.6898C29.7666 49.5185 29.6647 49.3631 29.534 49.234C29.4032 49.1048 29.2466 49.0048 29.0745 48.9404C28.9023 48.8761 28.7185 48.8489 28.5351 48.8606C28.2814 48.8696 28.029 48.9005 27.7806 48.9528V51.6553Z" fill="#183059"/>
<path d="M36.4383 51.6769C36.8104 51.7366 37.1593 51.896 37.4479 52.1382C37.598 52.2756 37.7169 52.4435 37.7965 52.6308C37.8761 52.818 37.9146 53.0201 37.9093 53.2235C37.9054 53.5566 37.7993 53.8805 37.6053 54.1515C37.3994 54.4519 37.1055 54.6813 36.764 54.8081C36.2365 54.9669 35.6859 55.0348 35.1356 55.0088H32.0742V54.8081H32.3185C32.4303 54.8179 32.5427 54.7991 32.6452 54.7535C32.7478 54.708 32.8371 54.6371 32.9047 54.5476C32.9969 54.3226 33.0341 54.0789 33.0133 53.8367V49.6528C33.0442 49.3912 32.995 49.1263 32.8721 48.8931C32.8022 48.821 32.7175 48.7647 32.6238 48.7282C32.5301 48.6917 32.4297 48.6757 32.3293 48.6815H32.0851V48.5024H34.8859C35.3087 48.4924 35.7312 48.5306 36.1452 48.6164C36.563 48.7005 36.9432 48.9152 37.2308 49.2296C37.4776 49.5055 37.6131 49.8633 37.6108 50.2335C37.6125 50.55 37.5073 50.8579 37.3122 51.1072C37.0862 51.3821 36.7812 51.581 36.4383 51.6769ZM33.9306 51.4219C34.0635 51.4455 34.1976 51.4618 34.3323 51.4707C34.4843 51.4707 34.6525 51.4707 34.8371 51.4707C35.1929 51.4893 35.5488 51.4377 35.8847 51.3188C36.1111 51.2283 36.3017 51.0663 36.4275 50.8575C36.5524 50.6534 36.6182 50.4186 36.6175 50.1792C36.6172 49.9927 36.5751 49.8087 36.4943 49.6406C36.4135 49.4725 36.2961 49.3246 36.1506 49.2079C35.7572 48.9263 35.2756 48.7953 34.7936 48.8389C34.5024 48.8363 34.2121 48.8728 33.9306 48.9474V51.4219ZM33.9306 54.5205C34.2863 54.6054 34.6505 54.6491 35.0162 54.6507C35.4988 54.6927 35.9799 54.5556 36.3678 54.2654C36.512 54.1495 36.628 54.0023 36.707 53.8349C36.786 53.6676 36.8259 53.4845 36.8237 53.2995C36.821 53.043 36.7498 52.792 36.6175 52.5723C36.4568 52.3242 36.2209 52.1341 35.9444 52.0297C35.5805 51.8848 35.1906 51.8164 34.7991 51.8289C34.6037 51.8289 34.43 51.8289 34.2943 51.8289C34.1797 51.8317 34.0654 51.8426 33.9523 51.8614L33.9306 54.5205Z" fill="#183059"/>
<path d="M42.5339 52.8165H40.0262L39.5865 53.8421C39.501 54.0121 39.4458 54.1958 39.4237 54.3848C39.4245 54.4364 39.4377 54.487 39.4623 54.5323C39.4869 54.5777 39.5221 54.6164 39.5648 54.6453C39.7497 54.7469 39.9564 54.8028 40.1673 54.808V54.9817H38.1318V54.808C38.3262 54.7931 38.5134 54.7277 38.6746 54.6181C38.9135 54.3445 39.0978 54.0277 39.2174 53.6848L41.5026 48.3505H41.6709L43.9235 53.7444C44.0295 54.0565 44.1996 54.343 44.4229 54.5856C44.5981 54.7274 44.8162 54.8058 45.0417 54.808V54.9817H42.458V54.808C42.6474 54.8156 42.8353 54.7705 43.0008 54.6778C43.043 54.6464 43.0774 54.6054 43.1009 54.5583C43.1245 54.5112 43.1367 54.4592 43.1365 54.4065C43.1106 54.1767 43.0464 53.953 42.9465 53.7444L42.5339 52.8165ZM42.4037 52.4638L41.3181 49.8428L40.1673 52.4638H42.4037Z" fill="#183059"/>
<path d="M48.5045 48.5024H50.768V48.6815H50.6431C50.5163 48.6954 50.3931 48.7322 50.2795 48.7901C50.1159 48.8662 49.9685 48.9731 49.8452 49.1048C49.6626 49.3128 49.5008 49.5381 49.3621 49.7777L47.7989 52.2359V53.8639C47.7662 54.1197 47.8136 54.3795 47.9346 54.6073C48.0058 54.6774 48.0909 54.7319 48.1843 54.7674C48.2778 54.8029 48.3775 54.8186 48.4774 54.8135H48.6891V54.9872H45.9588V54.8081H46.1922C46.3021 54.8182 46.4129 54.8006 46.5143 54.757C46.6157 54.7134 46.7047 54.6452 46.773 54.5585C46.8668 54.3378 46.9041 54.0972 46.8815 53.8584V52.3282L45.1012 49.6149C44.9707 49.4055 44.8275 49.2044 44.6723 49.0125C44.5331 48.8938 44.3754 48.7985 44.2055 48.7304C44.1181 48.6934 44.0235 48.6767 43.9287 48.6815V48.5024H46.6807V48.6815H46.5396C46.3937 48.6796 46.2498 48.7151 46.1216 48.7846C46.0638 48.8138 46.0157 48.859 45.983 48.9148C45.9502 48.9706 45.9343 49.0347 45.9371 49.0994C45.9851 49.3263 46.0834 49.5395 46.2248 49.7234L47.5818 51.8126L48.8519 49.8157C49.001 49.618 49.0997 49.3871 49.1396 49.1428C49.1412 49.0578 49.1166 48.9744 49.069 48.904C49.0224 48.8308 48.9541 48.7739 48.8736 48.7412C48.7492 48.6932 48.6159 48.6728 48.4828 48.6815L48.5045 48.5024Z" fill="#183059"/>
<path d="M52.5648 48.8389V51.4056H53.9923C54.252 51.4327 54.5133 51.3736 54.736 51.2374C54.9267 51.0252 55.0261 50.7464 55.0128 50.4614H55.1865V52.7189H55.0128C54.9931 52.5114 54.9475 52.3072 54.8771 52.1111C54.8156 51.9945 54.716 51.9026 54.5948 51.8506C54.4035 51.7745 54.1979 51.7412 53.9923 51.7529H52.5648V53.891C52.5514 54.073 52.566 54.2561 52.6082 54.4337C52.6307 54.499 52.6773 54.5534 52.7385 54.5856C52.8538 54.6317 52.9783 54.6503 53.1021 54.6399H54.1877C54.4559 54.6492 54.7241 54.6236 54.9856 54.5639C55.167 54.5025 55.3309 54.3983 55.4633 54.26C55.7103 53.9962 55.9153 53.696 56.0712 53.3701H56.2612L55.7184 54.998H50.7192V54.8081H50.9526C51.1048 54.8083 51.2544 54.769 51.3869 54.6941C51.4351 54.6723 51.4782 54.6408 51.5137 54.6016C51.5492 54.5624 51.5762 54.5163 51.5931 54.4662C51.6413 54.2619 51.6596 54.0517 51.6474 53.8422V49.6312C51.6801 49.3712 51.6367 49.1073 51.5226 48.8714C51.4492 48.8053 51.3635 48.7545 51.2703 48.7219C51.1771 48.6893 51.0783 48.6756 50.9798 48.6815H50.7464V48.5024H55.7456L55.8161 49.9242H55.6316C55.5972 49.6783 55.522 49.4399 55.409 49.2187C55.3219 49.0885 55.1968 48.9881 55.0508 48.9311C54.8302 48.8695 54.6011 48.8438 54.3723 48.8552L52.5648 48.8389Z" fill="#183059"/>
<path d="M63.0679 48.5024V48.6815C62.8701 48.7012 62.6819 48.7764 62.5251 48.8986C62.3257 49.1026 62.1721 49.3468 62.0746 49.6149L59.8111 55.1337H59.6374L57.2056 49.5443C57.1365 49.3545 57.0474 49.1726 56.9397 49.0017C56.8622 48.9028 56.7615 48.8245 56.6466 48.7738C56.4977 48.7074 56.3373 48.6705 56.1743 48.6652V48.4861H58.8286V48.6652C58.6232 48.6634 58.421 48.7158 58.2424 48.8172C58.2002 48.8509 58.1665 48.8939 58.1439 48.9429C58.1213 48.9919 58.1104 49.0454 58.1121 49.0993C58.1385 49.3583 58.2121 49.6103 58.3292 49.8428L59.9576 53.6414L61.5318 49.9242C61.6484 49.6815 61.7236 49.4211 61.7543 49.1536C61.7518 49.1022 61.7384 49.0519 61.715 49.0061C61.6916 48.9603 61.6588 48.9199 61.6186 48.8877C61.4813 48.7883 61.3204 48.7266 61.1518 48.7086H61.0704V48.5296L63.0679 48.5024Z" fill="#183059"/>
<path d="M4.73329 59.247V59.0734H6.99134V59.247H6.75251C6.63642 59.2429 6.52135 59.27 6.41923 59.3253C6.31711 59.3806 6.23165 59.4623 6.17171 59.5618C6.08596 59.777 6.05248 60.0094 6.07401 60.2401V62.8285C6.09201 63.333 6.02785 63.837 5.88403 64.3208C5.73715 64.6949 5.47474 65.0124 5.13496 65.2271C4.67798 65.5034 4.14839 65.6357 3.61512 65.6069C3.06335 65.6423 2.51307 65.5179 2.03015 65.2488C1.67495 65.0144 1.40469 64.6719 1.25937 64.272C1.13335 63.7575 1.08216 63.2274 1.10739 62.6983V60.2021C1.13851 59.9344 1.08133 59.6638 0.944547 59.4315C0.874382 59.3611 0.788895 59.3078 0.694744 59.2758C0.600594 59.2438 0.500324 59.2339 0.401747 59.247H0.179199V59.0734H2.94205V59.247H2.71408C2.60994 59.2399 2.50569 59.2591 2.41086 59.3027C2.31604 59.3463 2.23366 59.413 2.17128 59.4966C2.06904 59.7169 2.0278 59.9605 2.05186 60.2021V62.9859C2.0539 63.2713 2.07749 63.5561 2.12242 63.8379C2.13694 64.0959 2.20731 64.3477 2.32869 64.5759C2.46872 64.768 2.65557 64.9212 2.87149 65.0209C3.1289 65.1431 3.41166 65.2027 3.69654 65.1945C4.08871 65.2009 4.47583 65.1055 4.82014 64.9177C5.11844 64.7697 5.35765 64.5248 5.49864 64.2232C5.64376 63.7565 5.70441 63.2677 5.67776 62.7797V60.1912C5.70722 59.9343 5.66199 59.6743 5.54749 59.4424C5.47662 59.3718 5.39164 59.3169 5.2981 59.2813C5.20457 59.2458 5.10459 59.2304 5.00469 59.2362L4.73329 59.247Z" fill="#183059"/>
<path d="M7.54492 59.0734H9.28188L13.1846 63.8596V60.1804C13.2148 59.9269 13.1695 59.6702 13.0543 59.4424C12.9827 59.3734 12.8974 59.3204 12.8038 59.2867C12.7103 59.253 12.6107 59.2395 12.5115 59.247H12.289V59.0734H14.5145V59.247H14.2756C14.1677 59.2361 14.0588 59.2529 13.9591 59.2956C13.8595 59.3383 13.7723 59.4056 13.7057 59.4912C13.6122 59.7082 13.5748 59.9452 13.5971 60.1804V65.5635H13.4289L9.2276 60.4191V64.3534C9.19722 64.6051 9.24257 64.8602 9.35787 65.086C9.42967 65.1546 9.51507 65.2075 9.60857 65.2412C9.70206 65.2748 9.80157 65.2885 9.90067 65.2813H10.1286V65.4604H7.90317V65.2813H8.142C8.25153 65.2926 8.36211 65.2761 8.4636 65.2334C8.56509 65.1907 8.65422 65.1232 8.7228 65.0371C8.8145 64.8216 8.84998 64.5864 8.82593 64.3534V59.9091C8.7005 59.7532 8.56056 59.6097 8.40797 59.4804C8.27589 59.3986 8.13351 59.3347 7.98459 59.2904C7.84789 59.257 7.70728 59.2424 7.56663 59.247L7.54492 59.0734Z" fill="#183059"/>
<path d="M18.1945 65.2813V65.4604H15.4805V65.2813H15.7084C15.8155 65.2908 15.9233 65.2751 16.0231 65.2355C16.123 65.196 16.2123 65.1336 16.2838 65.0534C16.379 64.8236 16.4163 64.5739 16.3924 64.3263V60.2021C16.4062 59.9868 16.386 59.7707 16.3327 59.5618C16.294 59.4752 16.227 59.4044 16.1427 59.361C16.0097 59.2874 15.8604 59.2482 15.7084 59.247H15.4805V59.0734H18.1945V59.247H17.9665C17.8597 59.2373 17.7522 59.2534 17.653 59.2941C17.5538 59.3347 17.4658 59.3986 17.3966 59.4804C17.2903 59.7051 17.2489 59.9551 17.2771 60.2021V64.3263C17.2658 64.5415 17.286 64.7572 17.3368 64.9666C17.378 65.0564 17.449 65.1293 17.5377 65.1728C17.6686 65.2461 17.8165 65.2835 17.9665 65.2813H18.1945Z" fill="#183059"/>
<path d="M25.8592 59.0733V59.247C25.6618 59.2684 25.4741 59.3434 25.3164 59.464C25.1208 59.6648 24.9708 59.9055 24.8768 60.1695L22.6458 65.596H22.4721L20.0838 60.099C20.0182 59.9096 19.9327 59.7277 19.8287 59.5563C19.7488 59.4598 19.6488 59.382 19.5356 59.3284C19.3903 59.2626 19.2336 59.2257 19.0742 59.2199V59.0462H21.7122V59.2199C21.5106 59.2204 21.3125 59.2728 21.1369 59.3718C21.0941 59.4041 21.0596 59.446 21.036 59.494C21.0125 59.5421 21.0005 59.595 21.0012 59.6486C21.0296 59.9037 21.1031 60.1517 21.2183 60.3811L22.8467 64.1254L24.3502 60.43C24.4664 60.191 24.5416 59.9342 24.5728 59.6703C24.5695 59.6198 24.5558 59.5706 24.5324 59.5257C24.509 59.4809 24.4766 59.4414 24.4371 59.4098C24.3024 59.3101 24.1427 59.25 23.9757 59.2361H23.8943V59.0625L25.8592 59.0733Z" fill="#183059"/>
<path d="M28.5728 59.4206V61.944H29.9732C30.2287 61.9715 30.4862 61.9143 30.706 61.7812C30.892 61.5708 30.9893 61.2966 30.9774 61.016H31.1511V63.2409H30.9774C30.9591 63.0373 30.9153 62.8367 30.8471 62.644C30.7848 62.5301 30.6878 62.4388 30.5703 62.3835C30.3802 62.31 30.1766 62.2786 29.9732 62.2913H28.5728V64.3913C28.5586 64.5731 28.5714 64.756 28.6108 64.934C28.6215 64.9659 28.6385 64.9954 28.6609 65.0206C28.6833 65.0458 28.7106 65.0661 28.741 65.0805C28.8543 65.1272 28.9772 65.1458 29.0993 65.1348H30.1849C30.4495 65.1474 30.7146 65.1218 30.972 65.0588C31.1506 65.0004 31.3125 64.8999 31.4442 64.7658C31.6862 64.5044 31.8875 64.208 32.0413 63.8867H32.2312L31.6884 65.4875H26.7544V65.3084H26.9769C27.1269 65.3106 27.2749 65.2732 27.4058 65.1999C27.4531 65.1782 27.4956 65.1473 27.531 65.1092C27.5664 65.071 27.5939 65.0262 27.612 64.9774C27.6597 64.7749 27.678 64.5665 27.6663 64.3588V60.2129C27.6968 59.9565 27.6535 59.6967 27.5415 59.464C27.4688 59.3969 27.3832 59.3454 27.2898 59.3127C27.1964 59.28 27.0973 59.2669 26.9987 59.2741H26.7761V59.1005H31.6939L31.7644 60.5005H31.5853C31.5488 60.2586 31.4737 60.024 31.3628 59.8059C31.2779 59.6758 31.1546 59.5753 31.0099 59.5183C30.7927 59.459 30.5672 59.4352 30.3423 59.4478L28.5728 59.4206Z" fill="#183059"/>
<path d="M39.543 65.4604H37.8386L35.6674 62.4703C35.5045 62.4703 35.3743 62.4703 35.2766 62.4703H35.1463H34.9997V64.3262C34.9687 64.5832 35.014 64.8437 35.13 65.0751C35.1989 65.1484 35.2835 65.2051 35.3776 65.2408C35.4716 65.2766 35.5726 65.2904 35.6728 65.2813H35.9225V65.4604H33.2085V65.2813H33.4473C33.5583 65.2912 33.67 65.2724 33.7717 65.2268C33.8734 65.1812 33.9617 65.1103 34.0281 65.0208C34.1144 64.8001 34.1479 64.5622 34.1258 64.3262V60.2021C34.1569 59.9451 34.1116 59.6846 33.9956 59.4532C33.9247 59.3826 33.8397 59.3277 33.7462 59.2922C33.6526 59.2566 33.5527 59.2412 33.4528 59.247H33.2139V59.0733H35.5371C36.0426 59.0546 36.5483 59.1039 37.0407 59.2198C37.3606 59.3178 37.6453 59.5062 37.8603 59.7625C38.0838 60.0279 38.2034 60.3653 38.1968 60.7121C38.2017 61.0886 38.064 61.4531 37.8114 61.7323C37.4896 62.0567 37.0736 62.2713 36.6227 62.3455L37.9417 64.1743C38.1487 64.4983 38.4115 64.783 38.7179 65.0154C38.9761 65.1668 39.266 65.256 39.5647 65.2759L39.543 65.4604ZM35.0106 62.2044H35.282C35.7738 62.2382 36.2619 62.098 36.6607 61.8083C36.8097 61.6862 36.9291 61.532 37.01 61.3572C37.0908 61.1824 37.131 60.9915 37.1275 60.799C37.1343 60.6201 37.1046 60.4418 37.0402 60.2748C36.9758 60.1078 36.8781 59.9556 36.753 59.8276C36.6216 59.7009 36.4658 59.6023 36.295 59.5379C36.1242 59.4735 35.942 59.4447 35.7597 59.4532C35.5114 59.4595 35.2643 59.4885 35.0214 59.54L35.0106 62.2044Z" fill="#183059"/>
<path d="M44.4607 58.9268V61.1354H44.287C44.2501 60.7811 44.147 60.4369 43.983 60.1207C43.8347 59.8674 43.6185 59.6606 43.3588 59.5237C43.1017 59.3796 42.8122 59.3031 42.5174 59.3013C42.2184 59.2925 41.9279 59.4017 41.7087 59.6051C41.6099 59.6888 41.5303 59.7926 41.4751 59.9096C41.4198 60.0266 41.3903 60.1541 41.3884 60.2835C41.3876 60.4836 41.4611 60.677 41.5947 60.8261C42.0028 61.2126 42.4701 61.5313 42.9788 61.7703C43.4038 61.9866 43.8136 62.2314 44.2056 62.5029C44.4154 62.6656 44.586 62.8733 44.7049 63.1107C44.8225 63.3351 44.884 63.5846 44.8841 63.8378C44.8898 64.0736 44.8442 64.3078 44.7505 64.5243C44.6568 64.7407 44.5172 64.9342 44.3413 65.0914C43.9495 65.4541 43.4312 65.6489 42.8974 65.634C42.7157 65.6368 42.5341 65.6241 42.3546 65.596C42.1508 65.5491 41.9496 65.4911 41.7521 65.4224C41.5643 65.3529 41.3696 65.3037 41.1713 65.2759C41.1365 65.2737 41.1016 65.2789 41.0688 65.291C41.0361 65.3032 41.0063 65.322 40.9813 65.3464C40.922 65.431 40.8881 65.5308 40.8836 65.634H40.7099V63.4634H40.8836C40.9328 63.8231 41.043 64.1718 41.2093 64.4945C41.3702 64.7275 41.5891 64.9145 41.8444 65.0371C42.1317 65.1898 42.4526 65.2682 42.778 65.265C43.1183 65.2852 43.453 65.1723 43.7116 64.9503C43.8187 64.8606 43.9049 64.7485 43.9639 64.6219C44.023 64.4954 44.0536 64.3574 44.0536 64.2177C44.0507 64.0501 44.0059 63.886 43.9233 63.7402C43.8203 63.5666 43.6837 63.4154 43.5216 63.2952C43.3968 63.2029 43.0602 63.0022 42.5174 62.6928C42.1107 62.4781 41.7206 62.2332 41.3504 61.9603C41.1279 61.8013 40.9427 61.5957 40.8076 61.3579C40.6875 61.1365 40.6259 60.8881 40.6285 60.6362C40.6297 60.4118 40.6787 60.1902 40.7723 59.9862C40.8659 59.7822 41.0019 59.6005 41.1713 59.4532C41.5371 59.1166 42.0206 58.9373 42.5174 58.954C42.8929 58.9595 43.2629 59.0445 43.603 59.2036C43.7207 59.2631 43.8472 59.3034 43.9776 59.323C44.0518 59.3245 44.1238 59.2973 44.1784 59.247C44.2449 59.1619 44.2879 59.0609 44.3033 58.954L44.4607 58.9268Z" fill="#183059"/>
<path d="M48.9606 65.2813V65.4604H46.2466V65.2813H46.4746C46.5816 65.2912 46.6895 65.2758 46.7895 65.2362C46.8895 65.1966 46.9787 65.1339 47.0499 65.0534C47.1506 64.8251 47.1899 64.5744 47.1639 64.3263V60.2021C47.1769 59.9865 47.1549 59.7703 47.0988 59.5618C47.0616 59.4742 46.9942 59.4029 46.9088 59.361C46.7761 59.2867 46.6266 59.2475 46.4746 59.247H46.2466V59.0734H48.9606V59.247H48.7272C48.6249 59.2417 48.5227 59.2599 48.4286 59.3004C48.3344 59.3409 48.2509 59.4024 48.1844 59.4804C48.0808 59.7059 48.0396 59.9552 48.065 60.2021V64.3263C48.0516 64.5418 48.0736 64.7581 48.1301 64.9666C48.1675 65.0571 48.2371 65.1306 48.3255 65.1728C48.4564 65.2461 48.6043 65.2835 48.7543 65.2813H48.9606Z" fill="#183059"/>
<path d="M55.3657 59.0734L55.4362 60.5711H55.2571C55.2372 60.3842 55.1897 60.2013 55.116 60.0284C55.0317 59.8565 54.8948 59.7158 54.7251 59.6269C54.5272 59.5324 54.3092 59.4877 54.0901 59.4966H53.1945V64.3805C53.1662 64.6316 53.2095 64.8856 53.3193 65.1131C53.3913 65.1815 53.4767 65.2342 53.5702 65.2678C53.6636 65.3014 53.763 65.3153 53.8621 65.3085H54.0846V65.4875H51.3706V65.3085H51.5932C51.7019 65.3193 51.8115 65.3025 51.9121 65.2599C52.0126 65.2172 52.1008 65.1499 52.1686 65.0643C52.2603 64.8488 52.2958 64.6135 52.2717 64.3805V59.4966H51.5063C51.2926 59.4869 51.0786 59.5089 50.8713 59.5618C50.6983 59.6294 50.5504 59.7488 50.4479 59.9036C50.321 60.1118 50.2499 60.3492 50.2416 60.5928H50.0625L50.1385 59.0951L55.3657 59.0734Z" fill="#183059"/>
<path d="M60.8371 59.0734H63.068V59.247H62.9648C62.8397 59.2603 62.7181 59.2971 62.6066 59.3555C62.4457 59.4312 62.3003 59.5361 62.1778 59.6649C62.002 59.8718 61.844 60.0933 61.7055 60.3269L60.164 62.7526V64.3805C60.1336 64.6322 60.179 64.8873 60.2943 65.1131C60.3668 65.1807 60.4523 65.2329 60.5456 65.2664C60.6389 65.3 60.7381 65.3143 60.8371 65.3085H61.0488V65.4875H58.3348V65.3085H58.5627C58.6662 65.3147 58.7697 65.2958 58.8642 65.2532C58.9588 65.2107 59.0416 65.1459 59.1055 65.0643C59.1972 64.8488 59.2327 64.6135 59.2087 64.3805V62.8394L57.4608 60.1641C57.335 59.9582 57.1934 59.7622 57.0375 59.578C56.9009 59.4584 56.7448 59.363 56.5761 59.2959C56.4907 59.2584 56.3977 59.2417 56.3047 59.247V59.0734H59.0187V59.247H58.8776C58.7351 59.2449 58.5947 59.2805 58.4705 59.3501C58.4135 59.3789 58.366 59.4232 58.3333 59.478C58.3006 59.5328 58.2842 59.5957 58.2859 59.6594C58.3337 59.8831 58.4321 60.0929 58.5736 60.2726L59.9034 62.3293L61.1573 60.3649C61.3056 60.1714 61.4027 59.9437 61.4396 59.7028C61.4405 59.6205 61.4179 59.5395 61.3744 59.4695C61.3252 59.3986 61.2577 59.3423 61.179 59.3067C61.0558 59.2613 60.9248 59.241 60.7936 59.247L60.8371 59.0734Z" fill="#183059"/>
</svg>
